<?xml version="1.0" encoding="utf-8" standalone="no"?>
<!DOCTYPE svg PUBLIC "-//W3C//DTD SVG 1.1//EN"
  "http://www.w3.org/Graphics/SVG/1.1/DTD/svg11.dtd">
<svg xmlns:xlink="http://www.w3.org/1999/xlink" width="474.1625pt" height="363.718125pt" viewBox="0 0 474.1625 363.718125" xmlns="http://www.w3.org/2000/svg" version="1.1">
 <metadata>
  <rdf:RDF xmlns:dc="http://purl.org/dc/elements/1.1/" xmlns:cc="http://creativecommons.org/ns#" xmlns:rdf="http://www.w3.org/1999/02/22-rdf-syntax-ns#">
   <cc:Work>
    <dc:type rdf:resource="http://purl.org/dc/dcmitype/StillImage"/>
    <dc:date>2025-04-05T22:39:28.984303</dc:date>
    <dc:format>image/svg+xml</dc:format>
    <dc:creator>
     <cc:Agent>
      <dc:title>Matplotlib v3.10.1, https://matplotlib.org/</dc:title>
     </cc:Agent>
    </dc:creator>
   </cc:Work>
  </rdf:RDF>
 </metadata>
 <defs>
  <style type="text/css">*{stroke-linejoin: round; stroke-linecap: butt}</style>
 </defs>
 <g id="figure_1">
  <g id="patch_1">
   <path d="M 0 363.718125 
L 474.1625 363.718125 
L 474.1625 0 
L 0 0 
z
" style="fill: #ffffff"/>
  </g>
  <g id="axes_1">
   <g id="patch_2">
    <path d="M 20.5625 339.84 
L 466.9625 339.84 
L 466.9625 7.2 
L 20.5625 7.2 
z
" style="fill: #ffffff"/>
   </g>
   <g id="FillBetweenPolyCollection_1">
    <defs>
     <path id="m0df724bfed" d="M 40.853409 -38.998125 
L 40.853409 -341.398125 
L 44.952583 -338.34358 
L 49.051756 -335.289034 
L 53.15093 -332.234489 
L 57.250103 -329.179943 
L 61.349277 -326.125398 
L 65.44845 -323.070852 
L 69.547624 -320.016307 
L 73.646798 -316.961761 
L 77.745971 -313.907216 
L 81.845145 -310.85267 
L 85.944318 -307.798125 
L 90.043492 -304.74358 
L 94.142665 -301.689034 
L 98.241839 -298.634489 
L 102.341012 -295.579943 
L 106.440186 -292.525398 
L 110.53936 -289.470852 
L 114.638533 -286.416307 
L 118.737707 -283.361761 
L 122.83688 -280.307216 
L 126.936054 -277.25267 
L 131.035227 -274.198125 
L 135.134401 -271.14358 
L 139.233574 -268.089034 
L 143.332748 -265.034489 
L 147.431921 -261.979943 
L 151.531095 -258.925398 
L 155.630269 -255.870852 
L 159.729442 -252.816307 
L 163.828616 -249.761761 
L 167.927789 -246.707216 
L 172.026963 -243.65267 
L 176.126136 -240.598125 
L 180.22531 -237.54358 
L 184.324483 -234.489034 
L 188.423657 -231.434489 
L 192.522831 -228.379943 
L 196.622004 -225.325398 
L 200.721178 -222.270852 
L 204.820351 -219.216307 
L 208.919525 -216.161761 
L 213.018698 -213.107216 
L 217.117872 -210.05267 
L 221.217045 -206.998125 
L 225.316219 -203.94358 
L 229.415393 -200.889034 
L 233.514566 -197.834489 
L 237.61374 -194.779943 
L 241.712913 -191.725398 
L 245.812087 -188.670852 
L 249.91126 -185.616307 
L 254.010434 -182.561761 
L 258.109607 -179.507216 
L 262.208781 -176.45267 
L 266.307955 -173.398125 
L 270.407128 -170.34358 
L 274.506302 -167.289034 
L 278.605475 -164.234489 
L 282.704649 -161.179943 
L 286.803822 -158.125398 
L 290.902996 -155.070852 
L 295.002169 -152.016307 
L 299.101343 -148.961761 
L 303.200517 -145.907216 
L 307.29969 -142.85267 
L 311.398864 -139.798125 
L 315.498037 -136.74358 
L 319.597211 -133.689034 
L 323.696384 -130.634489 
L 327.795558 -127.579943 
L 331.894731 -124.525398 
L 335.993905 -121.470852 
L 340.093079 -118.416307 
L 344.192252 -115.361761 
L 348.291426 -112.307216 
L 352.390599 -109.25267 
L 356.489773 -106.198125 
L 360.588946 -103.14358 
L 364.68812 -100.089034 
L 368.787293 -97.034489 
L 372.886467 -93.979943 
L 376.98564 -90.925398 
L 381.084814 -87.870852 
L 385.183988 -84.816307 
L 389.283161 -81.761761 
L 393.382335 -78.707216 
L 397.481508 -75.65267 
L 401.580682 -72.598125 
L 405.679855 -69.54358 
L 409.779029 -66.489034 
L 413.878202 -63.434489 
L 417.977376 -60.379943 
L 422.07655 -57.325398 
L 426.175723 -54.270852 
L 430.274897 -51.216307 
L 434.37407 -48.161761 
L 438.473244 -45.107216 
L 442.572417 -42.05267 
L 446.671591 -38.998125 
L 446.671591 -38.998125 
L 446.671591 -38.998125 
L 442.572417 -38.998125 
L 438.473244 -38.998125 
L 434.37407 -38.998125 
L 430.274897 -38.998125 
L 426.175723 -38.998125 
L 422.07655 -38.998125 
L 417.977376 -38.998125 
L 413.878202 -38.998125 
L 409.779029 -38.998125 
L 405.679855 -38.998125 
L 401.580682 -38.998125 
L 397.481508 -38.998125 
L 393.382335 -38.998125 
L 389.283161 -38.998125 
L 385.183988 -38.998125 
L 381.084814 -38.998125 
L 376.98564 -38.998125 
L 372.886467 -38.998125 
L 368.787293 -38.998125 
L 364.68812 -38.998125 
L 360.588946 -38.998125 
L 356.489773 -38.998125 
L 352.390599 -38.998125 
L 348.291426 -38.998125 
L 344.192252 -38.998125 
L 340.093079 -38.998125 
L 335.993905 -38.998125 
L 331.894731 -38.998125 
L 327.795558 -38.998125 
L 323.696384 -38.998125 
L 319.597211 -38.998125 
L 315.498037 -38.998125 
L 311.398864 -38.998125 
L 307.29969 -38.998125 
L 303.200517 -38.998125 
L 299.101343 -38.998125 
L 295.002169 -38.998125 
L 290.902996 -38.998125 
L 286.803822 -38.998125 
L 282.704649 -38.998125 
L 278.605475 -38.998125 
L 274.506302 -38.998125 
L 270.407128 -38.998125 
L 266.307955 -38.998125 
L 262.208781 -38.998125 
L 258.109607 -38.998125 
L 254.010434 -38.998125 
L 249.91126 -38.998125 
L 245.812087 -38.998125 
L 241.712913 -38.998125 
L 237.61374 -38.998125 
L 233.514566 -38.998125 
L 229.415393 -38.998125 
L 225.316219 -38.998125 
L 221.217045 -38.998125 
L 217.117872 -38.998125 
L 213.018698 -38.998125 
L 208.919525 -38.998125 
L 204.820351 -38.998125 
L 200.721178 -38.998125 
L 196.622004 -38.998125 
L 192.522831 -38.998125 
L 188.423657 -38.998125 
L 184.324483 -38.998125 
L 180.22531 -38.998125 
L 176.126136 -38.998125 
L 172.026963 -38.998125 
L 167.927789 -38.998125 
L 163.828616 -38.998125 
L 159.729442 -38.998125 
L 155.630269 -38.998125 
L 151.531095 -38.998125 
L 147.431921 -38.998125 
L 143.332748 -38.998125 
L 139.233574 -38.998125 
L 135.134401 -38.998125 
L 131.035227 -38.998125 
L 126.936054 -38.998125 
L 122.83688 -38.998125 
L 118.737707 -38.998125 
L 114.638533 -38.998125 
L 110.53936 -38.998125 
L 106.440186 -38.998125 
L 102.341012 -38.998125 
L 98.241839 -38.998125 
L 94.142665 -38.998125 
L 90.043492 -38.998125 
L 85.944318 -38.998125 
L 81.845145 -38.998125 
L 77.745971 -38.998125 
L 73.646798 -38.998125 
L 69.547624 -38.998125 
L 65.44845 -38.998125 
L 61.349277 -38.998125 
L 57.250103 -38.998125 
L 53.15093 -38.998125 
L 49.051756 -38.998125 
L 44.952583 -38.998125 
L 40.853409 -38.998125 
z
" style="stroke: #add8e6; stroke-opacity: 0.5"/>
    </defs>
    <g clip-path="url(#pd2713cb26d)">
     <use xlink:href="#m0df724bfed" x="0" y="363.718125" style="fill: #add8e6; fill-opacity: 0.5; stroke: #add8e6; stroke-opacity: 0.5"/>
    </g>
   </g>
   <g id="matplotlib.axis_1">
    <g id="xtick_1">
     <g id="line2d_1">
      <path d="M 40.853409 339.84 
L 40.853409 7.2 
" clip-path="url(#pd2713cb26d)" style="fill: none; stroke-dasharray: 1.85,0.8; stroke-dashoffset: 0; stroke: #b0b0b0; stroke-width: 0.5"/>
     </g>
     <g id="line2d_2">
      <defs>
       <path id="m98d0c06848" d="M 0 0 
L 0 3.5 
" style="stroke: #000000; stroke-width: 0.8"/>
      </defs>
      <g>
       <use xlink:href="#m98d0c06848" x="40.853409" y="339.84" style="stroke: #000000; stroke-width: 0.8"/>
      </g>
     </g>
     <g id="text_1">
      <!-- 0 -->
      <g transform="translate(37.672159 354.438437) scale(0.1 -0.1)">
       <defs>
        <path id="DejaVuSerif-30" d="M 2034 219 
Q 2513 219 2750 744 
Q 2988 1269 2988 2328 
Q 2988 3391 2750 3916 
Q 2513 4441 2034 4441 
Q 1556 4441 1318 3916 
Q 1081 3391 1081 2328 
Q 1081 1269 1318 744 
Q 1556 219 2034 219 
z
M 2034 -91 
Q 1275 -91 848 546 
Q 422 1184 422 2328 
Q 422 3475 848 4112 
Q 1275 4750 2034 4750 
Q 2797 4750 3222 4112 
Q 3647 3475 3647 2328 
Q 3647 1184 3222 546 
Q 2797 -91 2034 -91 
z
" transform="scale(0.015625)"/>
       </defs>
       <use xlink:href="#DejaVuSerif-30"/>
      </g>
     </g>
    </g>
    <g id="xtick_2">
     <g id="line2d_3">
      <path d="M 91.580682 339.84 
L 91.580682 7.2 
" clip-path="url(#pd2713cb26d)" style="fill: none; stroke-dasharray: 1.85,0.8; stroke-dashoffset: 0; stroke: #b0b0b0; stroke-width: 0.5"/>
     </g>
     <g id="line2d_4">
      <g>
       <use xlink:href="#m98d0c06848" x="91.580682" y="339.84" style="stroke: #000000; stroke-width: 0.8"/>
      </g>
     </g>
     <g id="text_2">
      <!-- 1 -->
      <g transform="translate(88.399432 354.438437) scale(0.1 -0.1)">
       <defs>
        <path id="DejaVuSerif-31" d="M 909 0 
L 909 331 
L 1722 331 
L 1722 4213 
L 781 3603 
L 781 4013 
L 1919 4750 
L 2350 4750 
L 2350 331 
L 3163 331 
L 3163 0 
L 909 0 
z
" transform="scale(0.015625)"/>
       </defs>
       <use xlink:href="#DejaVuSerif-31"/>
      </g>
     </g>
    </g>
    <g id="xtick_3">
     <g id="line2d_5">
      <path d="M 142.307955 339.84 
L 142.307955 7.2 
" clip-path="url(#pd2713cb26d)" style="fill: none; stroke-dasharray: 1.85,0.8; stroke-dashoffset: 0; stroke: #b0b0b0; stroke-width: 0.5"/>
     </g>
     <g id="line2d_6">
      <g>
       <use xlink:href="#m98d0c06848" x="142.307955" y="339.84" style="stroke: #000000; stroke-width: 0.8"/>
      </g>
     </g>
     <g id="text_3">
      <!-- 2 -->
      <g transform="translate(139.126705 354.438437) scale(0.1 -0.1)">
       <defs>
        <path id="DejaVuSerif-32" d="M 819 3553 
L 469 3553 
L 469 4384 
Q 803 4563 1142 4656 
Q 1481 4750 1806 4750 
Q 2534 4750 2956 4397 
Q 3378 4044 3378 3438 
Q 3378 2753 2422 1800 
Q 2347 1728 2309 1691 
L 1131 513 
L 3078 513 
L 3078 1088 
L 3444 1088 
L 3444 0 
L 434 0 
L 434 341 
L 1850 1753 
Q 2319 2222 2519 2614 
Q 2719 3006 2719 3438 
Q 2719 3909 2473 4175 
Q 2228 4441 1797 4441 
Q 1350 4441 1106 4219 
Q 863 3997 819 3553 
z
" transform="scale(0.015625)"/>
       </defs>
       <use xlink:href="#DejaVuSerif-32"/>
      </g>
     </g>
    </g>
    <g id="xtick_4">
     <g id="line2d_7">
      <path d="M 193.035227 339.84 
L 193.035227 7.2 
" clip-path="url(#pd2713cb26d)" style="fill: none; stroke-dasharray: 1.85,0.8; stroke-dashoffset: 0; stroke: #b0b0b0; stroke-width: 0.5"/>
     </g>
     <g id="line2d_8">
      <g>
       <use xlink:href="#m98d0c06848" x="193.035227" y="339.84" style="stroke: #000000; stroke-width: 0.8"/>
      </g>
     </g>
     <g id="text_4">
      <!-- 3 -->
      <g transform="translate(189.853977 354.438437) scale(0.1 -0.1)">
       <defs>
        <path id="DejaVuSerif-33" d="M 622 4469 
Q 988 4606 1323 4678 
Q 1659 4750 1953 4750 
Q 2638 4750 3022 4454 
Q 3406 4159 3406 3634 
Q 3406 3213 3140 2930 
Q 2875 2647 2388 2547 
Q 2963 2466 3280 2130 
Q 3597 1794 3597 1259 
Q 3597 606 3158 257 
Q 2719 -91 1894 -91 
Q 1528 -91 1179 -12 
Q 831 66 488 225 
L 488 1131 
L 838 1131 
Q 869 681 1141 450 
Q 1413 219 1906 219 
Q 2384 219 2661 495 
Q 2938 772 2938 1253 
Q 2938 1803 2653 2086 
Q 2369 2369 1819 2369 
L 1522 2369 
L 1522 2688 
L 1678 2688 
Q 2225 2688 2498 2914 
Q 2772 3141 2772 3597 
Q 2772 4006 2547 4223 
Q 2322 4441 1900 4441 
Q 1478 4441 1245 4241 
Q 1013 4041 972 3647 
L 622 3647 
L 622 4469 
z
" transform="scale(0.015625)"/>
       </defs>
       <use xlink:href="#DejaVuSerif-33"/>
      </g>
     </g>
    </g>
    <g id="xtick_5">
     <g id="line2d_9">
      <path d="M 243.7625 339.84 
L 243.7625 7.2 
" clip-path="url(#pd2713cb26d)" style="fill: none; stroke-dasharray: 1.85,0.8; stroke-dashoffset: 0; stroke: #b0b0b0; stroke-width: 0.5"/>
     </g>
     <g id="line2d_10">
      <g>
       <use xlink:href="#m98d0c06848" x="243.7625" y="339.84" style="stroke: #000000; stroke-width: 0.8"/>
      </g>
     </g>
     <g id="text_5">
      <!-- 4 -->
      <g transform="translate(240.58125 354.438437) scale(0.1 -0.1)">
       <defs>
        <path id="DejaVuSerif-34" d="M 2234 1581 
L 2234 4063 
L 641 1581 
L 2234 1581 
z
M 3609 0 
L 1484 0 
L 1484 331 
L 2234 331 
L 2234 1247 
L 197 1247 
L 197 1588 
L 2241 4750 
L 2859 4750 
L 2859 1581 
L 3750 1581 
L 3750 1247 
L 2859 1247 
L 2859 331 
L 3609 331 
L 3609 0 
z
" transform="scale(0.015625)"/>
       </defs>
       <use xlink:href="#DejaVuSerif-34"/>
      </g>
     </g>
    </g>
    <g id="xtick_6">
     <g id="line2d_11">
      <path d="M 294.489773 339.84 
L 294.489773 7.2 
" clip-path="url(#pd2713cb26d)" style="fill: none; stroke-dasharray: 1.85,0.8; stroke-dashoffset: 0; stroke: #b0b0b0; stroke-width: 0.5"/>
     </g>
     <g id="line2d_12">
      <g>
       <use xlink:href="#m98d0c06848" x="294.489773" y="339.84" style="stroke: #000000; stroke-width: 0.8"/>
      </g>
     </g>
     <g id="text_6">
      <!-- 5 -->
      <g transform="translate(291.308523 354.438437) scale(0.1 -0.1)">
       <defs>
        <path id="DejaVuSerif-35" d="M 3219 4666 
L 3219 4153 
L 1081 4153 
L 1081 2816 
Q 1244 2928 1461 2984 
Q 1678 3041 1947 3041 
Q 2703 3041 3140 2622 
Q 3578 2203 3578 1478 
Q 3578 738 3136 323 
Q 2694 -91 1894 -91 
Q 1572 -91 1234 -12 
Q 897 66 544 225 
L 544 1131 
L 897 1131 
Q 925 688 1179 453 
Q 1434 219 1894 219 
Q 2388 219 2653 544 
Q 2919 869 2919 1478 
Q 2919 2084 2655 2407 
Q 2391 2731 1894 2731 
Q 1613 2731 1398 2631 
Q 1184 2531 1019 2322 
L 750 2322 
L 750 4666 
L 3219 4666 
z
" transform="scale(0.015625)"/>
       </defs>
       <use xlink:href="#DejaVuSerif-35"/>
      </g>
     </g>
    </g>
    <g id="xtick_7">
     <g id="line2d_13">
      <path d="M 345.217045 339.84 
L 345.217045 7.2 
" clip-path="url(#pd2713cb26d)" style="fill: none; stroke-dasharray: 1.85,0.8; stroke-dashoffset: 0; stroke: #b0b0b0; stroke-width: 0.5"/>
     </g>
     <g id="line2d_14">
      <g>
       <use xlink:href="#m98d0c06848" x="345.217045" y="339.84" style="stroke: #000000; stroke-width: 0.8"/>
      </g>
     </g>
     <g id="text_7">
      <!-- 6 -->
      <g transform="translate(342.035795 354.438437) scale(0.1 -0.1)">
       <defs>
        <path id="DejaVuSerif-36" d="M 2094 219 
Q 2534 219 2771 542 
Q 3009 866 3009 1472 
Q 3009 2078 2771 2401 
Q 2534 2725 2094 2725 
Q 1647 2725 1412 2412 
Q 1178 2100 1178 1509 
Q 1178 888 1415 553 
Q 1653 219 2094 219 
z
M 1075 2569 
Q 1288 2803 1556 2918 
Q 1825 3034 2163 3034 
Q 2859 3034 3264 2615 
Q 3669 2197 3669 1472 
Q 3669 763 3233 336 
Q 2797 -91 2069 -91 
Q 1278 -91 853 498 
Q 428 1088 428 2181 
Q 428 3406 931 4078 
Q 1434 4750 2350 4750 
Q 2597 4750 2869 4703 
Q 3141 4656 3425 4563 
L 3425 3794 
L 3072 3794 
Q 3034 4109 2831 4275 
Q 2628 4441 2284 4441 
Q 1678 4441 1381 3981 
Q 1084 3522 1075 2569 
z
" transform="scale(0.015625)"/>
       </defs>
       <use xlink:href="#DejaVuSerif-36"/>
      </g>
     </g>
    </g>
    <g id="xtick_8">
     <g id="line2d_15">
      <path d="M 395.944318 339.84 
L 395.944318 7.2 
" clip-path="url(#pd2713cb26d)" style="fill: none; stroke-dasharray: 1.85,0.8; stroke-dashoffset: 0; stroke: #b0b0b0; stroke-width: 0.5"/>
     </g>
     <g id="line2d_16">
      <g>
       <use xlink:href="#m98d0c06848" x="395.944318" y="339.84" style="stroke: #000000; stroke-width: 0.8"/>
      </g>
     </g>
     <g id="text_8">
      <!-- 7 -->
      <g transform="translate(392.763068 354.438437) scale(0.1 -0.1)">
       <defs>
        <path id="DejaVuSerif-37" d="M 3609 4347 
L 1784 0 
L 1319 0 
L 3059 4153 
L 903 4153 
L 903 3578 
L 538 3578 
L 538 4666 
L 3609 4666 
L 3609 4347 
z
" transform="scale(0.015625)"/>
       </defs>
       <use xlink:href="#DejaVuSerif-37"/>
      </g>
     </g>
    </g>
    <g id="xtick_9">
     <g id="line2d_17">
      <path d="M 446.671591 339.84 
L 446.671591 7.2 
" clip-path="url(#pd2713cb26d)" style="fill: none; stroke-dasharray: 1.85,0.8; stroke-dashoffset: 0; stroke: #b0b0b0; stroke-width: 0.5"/>
     </g>
     <g id="line2d_18">
      <g>
       <use xlink:href="#m98d0c06848" x="446.671591" y="339.84" style="stroke: #000000; stroke-width: 0.8"/>
      </g>
     </g>
     <g id="text_9">
      <!-- 8 -->
      <g transform="translate(443.490341 354.438437) scale(0.1 -0.1)">
       <defs>
        <path id="DejaVuSerif-38" d="M 2981 1275 
Q 2981 1775 2732 2051 
Q 2484 2328 2034 2328 
Q 1584 2328 1336 2051 
Q 1088 1775 1088 1275 
Q 1088 772 1336 495 
Q 1584 219 2034 219 
Q 2484 219 2732 495 
Q 2981 772 2981 1275 
z
M 2853 3541 
Q 2853 3966 2637 4203 
Q 2422 4441 2034 4441 
Q 1650 4441 1433 4203 
Q 1216 3966 1216 3541 
Q 1216 3113 1433 2875 
Q 1650 2638 2034 2638 
Q 2422 2638 2637 2875 
Q 2853 3113 2853 3541 
z
M 2516 2484 
Q 3047 2413 3344 2092 
Q 3641 1772 3641 1275 
Q 3641 619 3225 264 
Q 2809 -91 2034 -91 
Q 1263 -91 845 264 
Q 428 619 428 1275 
Q 428 1772 725 2092 
Q 1022 2413 1556 2484 
Q 1084 2569 832 2842 
Q 581 3116 581 3541 
Q 581 4103 968 4426 
Q 1356 4750 2034 4750 
Q 2713 4750 3100 4426 
Q 3488 4103 3488 3541 
Q 3488 3116 3236 2842 
Q 2984 2569 2516 2484 
z
" transform="scale(0.015625)"/>
       </defs>
       <use xlink:href="#DejaVuSerif-38"/>
      </g>
     </g>
    </g>
   </g>
   <g id="matplotlib.axis_2">
    <g id="ytick_1">
     <g id="line2d_19">
      <path d="M 20.5625 324.72 
L 466.9625 324.72 
" clip-path="url(#pd2713cb26d)" style="fill: none; stroke-dasharray: 1.85,0.8; stroke-dashoffset: 0; stroke: #b0b0b0; stroke-width: 0.5"/>
     </g>
     <g id="line2d_20">
      <defs>
       <path id="me351f32c4d" d="M 0 0 
L -3.5 0 
" style="stroke: #000000; stroke-width: 0.8"/>
      </defs>
      <g>
       <use xlink:href="#me351f32c4d" x="20.5625" y="324.72" style="stroke: #000000; stroke-width: 0.8"/>
      </g>
     </g>
     <g id="text_10">
      <!-- 0 -->
      <g transform="translate(7.2 328.519219) scale(0.1 -0.1)">
       <use xlink:href="#DejaVuSerif-30"/>
      </g>
     </g>
    </g>
    <g id="ytick_2">
     <g id="line2d_21">
      <path d="M 20.5625 274.32 
L 466.9625 274.32 
" clip-path="url(#pd2713cb26d)" style="fill: none; stroke-dasharray: 1.85,0.8; stroke-dashoffset: 0; stroke: #b0b0b0; stroke-width: 0.5"/>
     </g>
     <g id="line2d_22">
      <g>
       <use xlink:href="#me351f32c4d" x="20.5625" y="274.32" style="stroke: #000000; stroke-width: 0.8"/>
      </g>
     </g>
     <g id="text_11">
      <!-- 1 -->
      <g transform="translate(7.2 278.119219) scale(0.1 -0.1)">
       <use xlink:href="#DejaVuSerif-31"/>
      </g>
     </g>
    </g>
    <g id="ytick_3">
     <g id="line2d_23">
      <path d="M 20.5625 223.92 
L 466.9625 223.92 
" clip-path="url(#pd2713cb26d)" style="fill: none; stroke-dasharray: 1.85,0.8; stroke-dashoffset: 0; stroke: #b0b0b0; stroke-width: 0.5"/>
     </g>
     <g id="line2d_24">
      <g>
       <use xlink:href="#me351f32c4d" x="20.5625" y="223.92" style="stroke: #000000; stroke-width: 0.8"/>
      </g>
     </g>
     <g id="text_12">
      <!-- 2 -->
      <g transform="translate(7.2 227.719219) scale(0.1 -0.1)">
       <use xlink:href="#DejaVuSerif-32"/>
      </g>
     </g>
    </g>
    <g id="ytick_4">
     <g id="line2d_25">
      <path d="M 20.5625 173.52 
L 466.9625 173.52 
" clip-path="url(#pd2713cb26d)" style="fill: none; stroke-dasharray: 1.85,0.8; stroke-dashoffset: 0; stroke: #b0b0b0; stroke-width: 0.5"/>
     </g>
     <g id="line2d_26">
      <g>
       <use xlink:href="#me351f32c4d" x="20.5625" y="173.52" style="stroke: #000000; stroke-width: 0.8"/>
      </g>
     </g>
     <g id="text_13">
      <!-- 3 -->
      <g transform="translate(7.2 177.319219) scale(0.1 -0.1)">
       <use xlink:href="#DejaVuSerif-33"/>
      </g>
     </g>
    </g>
    <g id="ytick_5">
     <g id="line2d_27">
      <path d="M 20.5625 123.12 
L 466.9625 123.12 
" clip-path="url(#pd2713cb26d)" style="fill: none; stroke-dasharray: 1.85,0.8; stroke-dashoffset: 0; stroke: #b0b0b0; stroke-width: 0.5"/>
     </g>
     <g id="line2d_28">
      <g>
       <use xlink:href="#me351f32c4d" x="20.5625" y="123.12" style="stroke: #000000; stroke-width: 0.8"/>
      </g>
     </g>
     <g id="text_14">
      <!-- 4 -->
      <g transform="translate(7.2 126.919219) scale(0.1 -0.1)">
       <use xlink:href="#DejaVuSerif-34"/>
      </g>
     </g>
    </g>
    <g id="ytick_6">
     <g id="line2d_29">
      <path d="M 20.5625 72.72 
L 466.9625 72.72 
" clip-path="url(#pd2713cb26d)" style="fill: none; stroke-dasharray: 1.85,0.8; stroke-dashoffset: 0; stroke: #b0b0b0; stroke-width: 0.5"/>
     </g>
     <g id="line2d_30">
      <g>
       <use xlink:href="#me351f32c4d" x="20.5625" y="72.72" style="stroke: #000000; stroke-width: 0.8"/>
      </g>
     </g>
     <g id="text_15">
      <!-- 5 -->
      <g transform="translate(7.2 76.519219) scale(0.1 -0.1)">
       <use xlink:href="#DejaVuSerif-35"/>
      </g>
     </g>
    </g>
    <g id="ytick_7">
     <g id="line2d_31">
      <path d="M 20.5625 22.32 
L 466.9625 22.32 
" clip-path="url(#pd2713cb26d)" style="fill: none; stroke-dasharray: 1.85,0.8; stroke-dashoffset: 0; stroke: #b0b0b0; stroke-width: 0.5"/>
     </g>
     <g id="line2d_32">
      <g>
       <use xlink:href="#me351f32c4d" x="20.5625" y="22.32" style="stroke: #000000; stroke-width: 0.8"/>
      </g>
     </g>
     <g id="text_16">
      <!-- 6 -->
      <g transform="translate(7.2 26.119219) scale(0.1 -0.1)">
       <use xlink:href="#DejaVuSerif-36"/>
      </g>
     </g>
    </g>
   </g>
   <g id="line2d_33">
    <path d="M 20.5625 324.72 
L 466.9625 324.72 
" clip-path="url(#pd2713cb26d)" style="fill: none; stroke: #000000; stroke-linecap: square"/>
   </g>
   <g id="line2d_34">
    <path d="M 40.853409 339.84 
L 40.853409 7.2 
" clip-path="url(#pd2713cb26d)" style="fill: none; stroke: #000000; stroke-linecap: square"/>
   </g>
   <g id="line2d_35">
    <path d="M 40.853409 22.32 
L 44.952583 25.374545 
L 49.051756 28.429091 
L 53.15093 31.483636 
L 57.250103 34.538182 
L 61.349277 37.592727 
L 65.44845 40.647273 
L 69.547624 43.701818 
L 73.646798 46.756364 
L 77.745971 49.810909 
L 81.845145 52.865455 
L 85.944318 55.92 
L 90.043492 58.974545 
L 94.142665 62.029091 
L 98.241839 65.083636 
L 102.341012 68.138182 
L 106.440186 71.192727 
L 110.53936 74.247273 
L 114.638533 77.301818 
L 118.737707 80.356364 
L 122.83688 83.410909 
L 126.936054 86.465455 
L 131.035227 89.52 
L 135.134401 92.574545 
L 139.233574 95.629091 
L 143.332748 98.683636 
L 147.431921 101.738182 
L 151.531095 104.792727 
L 155.630269 107.847273 
L 159.729442 110.901818 
L 163.828616 113.956364 
L 167.927789 117.010909 
L 172.026963 120.065455 
L 176.126136 123.12 
L 180.22531 126.174545 
L 184.324483 129.229091 
L 188.423657 132.283636 
L 192.522831 135.338182 
L 196.622004 138.392727 
L 200.721178 141.447273 
L 204.820351 144.501818 
L 208.919525 147.556364 
L 213.018698 150.610909 
L 217.117872 153.665455 
L 221.217045 156.72 
L 225.316219 159.774545 
L 229.415393 162.829091 
L 233.514566 165.883636 
L 237.61374 168.938182 
L 241.712913 171.992727 
L 245.812087 175.047273 
L 249.91126 178.101818 
L 254.010434 181.156364 
L 258.109607 184.210909 
L 262.208781 187.265455 
L 266.307955 190.32 
L 270.407128 193.374545 
L 274.506302 196.429091 
L 278.605475 199.483636 
L 282.704649 202.538182 
L 286.803822 205.592727 
L 290.902996 208.647273 
L 295.002169 211.701818 
L 299.101343 214.756364 
L 303.200517 217.810909 
L 307.29969 220.865455 
L 311.398864 223.92 
L 315.498037 226.974545 
L 319.597211 230.029091 
L 323.696384 233.083636 
L 327.795558 236.138182 
L 331.894731 239.192727 
L 335.993905 242.247273 
L 340.093079 245.301818 
L 344.192252 248.356364 
L 348.291426 251.410909 
L 352.390599 254.465455 
L 356.489773 257.52 
L 360.588946 260.574545 
L 364.68812 263.629091 
L 368.787293 266.683636 
L 372.886467 269.738182 
L 376.98564 272.792727 
L 381.084814 275.847273 
L 385.183988 278.901818 
L 389.283161 281.956364 
L 393.382335 285.010909 
L 397.481508 288.065455 
L 401.580682 291.12 
L 405.679855 294.174545 
L 409.779029 297.229091 
L 413.878202 300.283636 
L 417.977376 303.338182 
L 422.07655 306.392727 
L 426.175723 309.447273 
L 430.274897 312.501818 
L 434.37407 315.556364 
L 438.473244 318.610909 
L 442.572417 321.665455 
L 446.671591 324.72 
" clip-path="url(#pd2713cb26d)" style="fill: none; stroke: #0000ff; stroke-width: 1.5; stroke-linecap: square"/>
   </g>
   <g id="patch_3">
    <path d="M 20.5625 339.84 
L 20.5625 7.2 
" style="fill: none; stroke: #000000; stroke-width: 0.8; stroke-linejoin: miter; stroke-linecap: square"/>
   </g>
   <g id="patch_4">
    <path d="M 466.9625 339.84 
L 466.9625 7.2 
" style="fill: none; stroke: #000000; stroke-width: 0.8; stroke-linejoin: miter; stroke-linecap: square"/>
   </g>
   <g id="patch_5">
    <path d="M 20.5625 339.84 
L 466.9625 339.84 
" style="fill: none; stroke: #000000; stroke-width: 0.8; stroke-linejoin: miter; stroke-linecap: square"/>
   </g>
   <g id="patch_6">
    <path d="M 20.5625 7.2 
L 466.9625 7.2 
" style="fill: none; stroke: #000000; stroke-width: 0.8; stroke-linejoin: miter; stroke-linecap: square"/>
   </g>
   <g id="text_17">
    <g id="patch_7">
     <path d="M 105.032955 239.97 
L 179.582955 239.97 
Q 187.082955 239.97 187.082955 232.47 
L 187.082955 215.37 
Q 187.082955 207.87 179.582955 207.87 
L 105.032955 207.87 
Q 97.532955 207.87 97.532955 215.37 
L 97.532955 232.47 
Q 97.532955 239.97 105.032955 239.97 
z
" style="fill: #ffffff; opacity: 0.7; stroke: #808080; stroke-linejoin: miter"/>
    </g>
    <!-- $y \leq a - \frac{a}{b}\cdot x$ -->
    <g transform="translate(105.032955 225.87) scale(0.15 -0.15)">
     <defs>
      <path id="Cmmi10-79" d="M 538 -916 
Q 672 -1147 1006 -1147 
Q 1309 -1147 1531 -934 
Q 1753 -722 1889 -420 
Q 2025 -119 2100 197 
Q 1816 -72 1484 -72 
Q 1231 -72 1053 15 
Q 875 103 776 276 
Q 678 450 678 697 
Q 678 906 734 1126 
Q 791 1347 892 1617 
Q 994 1888 1069 2088 
Q 1153 2322 1153 2472 
Q 1153 2663 1013 2663 
Q 759 2663 595 2402 
Q 431 2141 353 1819 
Q 341 1778 300 1778 
L 225 1778 
Q 172 1778 172 1838 
L 172 1856 
Q 275 2238 487 2533 
Q 700 2828 1025 2828 
Q 1253 2828 1411 2678 
Q 1569 2528 1569 2297 
Q 1569 2178 1516 2047 
Q 1488 1969 1388 1706 
Q 1288 1444 1234 1272 
Q 1181 1100 1147 934 
Q 1113 769 1113 603 
Q 1113 391 1203 244 
Q 1294 97 1491 97 
Q 1888 97 2203 581 
L 2688 2553 
Q 2709 2638 2787 2698 
Q 2866 2759 2956 2759 
Q 3034 2759 3092 2709 
Q 3150 2659 3150 2578 
Q 3150 2541 3144 2528 
L 2509 -19 
Q 2425 -347 2200 -647 
Q 1975 -947 1658 -1130 
Q 1341 -1313 997 -1313 
Q 831 -1313 668 -1248 
Q 506 -1184 406 -1056 
Q 306 -928 306 -756 
Q 306 -581 409 -453 
Q 513 -325 684 -325 
Q 788 -325 858 -389 
Q 928 -453 928 -556 
Q 928 -703 818 -812 
Q 709 -922 563 -922 
Q 556 -919 550 -917 
Q 544 -916 538 -916 
z
" transform="scale(0.015625)"/>
      <path id="Cmsy10-2219" d="M 653 -878 
Q 600 -878 565 -837 
Q 531 -797 531 -750 
Q 531 -697 565 -659 
Q 600 -622 653 -622 
L 4325 -622 
Q 4375 -622 4408 -659 
Q 4441 -697 4441 -750 
Q 4441 -797 4408 -837 
Q 4375 -878 4325 -878 
L 653 -878 
z
M 594 2113 
Q 531 2131 531 2222 
Q 531 2303 616 2338 
L 4269 4063 
Q 4281 4072 4313 4072 
Q 4366 4072 4403 4034 
Q 4441 3997 4441 3944 
Q 4441 3859 4366 3828 
L 959 2222 
L 4384 603 
Q 4441 572 4441 494 
Q 4441 438 4403 402 
Q 4366 366 4313 366 
Q 4281 366 4269 378 
L 594 2113 
z
" transform="scale(0.015625)"/>
      <path id="Cmmi10-61" d="M 1113 -72 
Q 709 -72 476 233 
Q 244 538 244 953 
Q 244 1363 456 1803 
Q 669 2244 1030 2536 
Q 1391 2828 1806 2828 
Q 1997 2828 2147 2725 
Q 2297 2622 2381 2444 
Q 2453 2700 2663 2700 
Q 2744 2700 2798 2651 
Q 2853 2603 2853 2522 
Q 2853 2503 2851 2493 
Q 2850 2484 2847 2472 
L 2400 684 
Q 2356 494 2356 372 
Q 2356 97 2541 97 
Q 2741 97 2845 351 
Q 2950 606 3022 941 
Q 3034 978 3072 978 
L 3150 978 
Q 3175 978 3190 956 
Q 3206 934 3206 916 
Q 3094 469 2961 198 
Q 2828 -72 2528 -72 
Q 2313 -72 2147 54 
Q 1981 181 1941 391 
Q 1528 -72 1113 -72 
z
M 1119 97 
Q 1350 97 1567 270 
Q 1784 444 1941 678 
Q 1947 684 1947 697 
L 2291 2088 
L 2297 2106 
Q 2259 2334 2132 2498 
Q 2006 2663 1791 2663 
Q 1575 2663 1389 2486 
Q 1203 2309 1075 2069 
Q 950 1813 836 1366 
Q 722 919 722 672 
Q 722 450 817 273 
Q 913 97 1119 97 
z
" transform="scale(0.015625)"/>
      <path id="Cmsy10-a1" d="M 653 1472 
Q 600 1472 565 1512 
Q 531 1553 531 1600 
Q 531 1647 565 1687 
Q 600 1728 653 1728 
L 4325 1728 
Q 4375 1728 4408 1687 
Q 4441 1647 4441 1600 
Q 4441 1553 4408 1512 
Q 4375 1472 4325 1472 
L 653 1472 
z
" transform="scale(0.015625)"/>
      <path id="Cmmi10-62" d="M 1106 -72 
Q 719 -72 503 231 
Q 288 534 288 941 
Q 288 1000 317 1173 
Q 347 1347 347 1388 
L 966 3872 
Q 991 3981 997 4044 
Q 997 4147 581 4147 
Q 519 4147 519 4231 
Q 522 4247 533 4287 
Q 544 4328 561 4350 
Q 578 4372 609 4372 
L 1472 4441 
Q 1550 4441 1550 4359 
L 1075 2472 
Q 1438 2828 1806 2828 
Q 2078 2828 2273 2684 
Q 2469 2541 2566 2306 
Q 2663 2072 2663 1806 
Q 2663 1497 2542 1167 
Q 2422 838 2209 555 
Q 1997 272 1712 100 
Q 1428 -72 1106 -72 
z
M 1119 97 
Q 1338 97 1528 280 
Q 1719 463 1838 691 
Q 1966 947 2077 1386 
Q 2188 1825 2188 2088 
Q 2188 2316 2092 2489 
Q 1997 2663 1791 2663 
Q 1559 2663 1348 2492 
Q 1138 2322 978 2088 
L 800 1363 
Q 697 959 691 716 
Q 691 475 795 286 
Q 900 97 1119 97 
z
" transform="scale(0.015625)"/>
      <path id="Cmsy10-a2" d="M 538 1600 
Q 538 1691 584 1772 
Q 631 1853 714 1903 
Q 797 1953 891 1953 
Q 981 1953 1064 1903 
Q 1147 1853 1194 1772 
Q 1241 1691 1241 1600 
Q 1241 1456 1139 1351 
Q 1038 1247 891 1247 
Q 747 1247 642 1351 
Q 538 1456 538 1600 
z
" transform="scale(0.015625)"/>
      <path id="Cmmi10-78" d="M 500 184 
Q 613 97 819 97 
Q 1019 97 1172 289 
Q 1325 481 1381 709 
L 1672 1844 
Q 1741 2153 1741 2266 
Q 1741 2425 1652 2544 
Q 1563 2663 1403 2663 
Q 1200 2663 1022 2536 
Q 844 2409 722 2214 
Q 600 2019 550 1819 
Q 538 1778 500 1778 
L 422 1778 
Q 372 1778 372 1838 
L 372 1856 
Q 434 2094 584 2320 
Q 734 2547 951 2687 
Q 1169 2828 1416 2828 
Q 1650 2828 1839 2703 
Q 2028 2578 2106 2363 
Q 2216 2559 2386 2693 
Q 2556 2828 2759 2828 
Q 2897 2828 3040 2779 
Q 3184 2731 3275 2631 
Q 3366 2531 3366 2381 
Q 3366 2219 3261 2101 
Q 3156 1984 2994 1984 
Q 2891 1984 2822 2050 
Q 2753 2116 2753 2216 
Q 2753 2350 2845 2451 
Q 2938 2553 3066 2572 
Q 2950 2663 2747 2663 
Q 2541 2663 2389 2472 
Q 2238 2281 2175 2047 
L 1894 916 
Q 1825 659 1825 494 
Q 1825 331 1917 214 
Q 2009 97 2163 97 
Q 2463 97 2698 361 
Q 2934 625 3009 941 
Q 3022 978 3059 978 
L 3138 978 
Q 3163 978 3178 961 
Q 3194 944 3194 922 
Q 3194 916 3188 903 
Q 3097 522 2806 225 
Q 2516 -72 2150 -72 
Q 1916 -72 1727 54 
Q 1538 181 1459 397 
Q 1359 209 1182 68 
Q 1006 -72 806 -72 
Q 669 -72 523 -23 
Q 378 25 287 125 
Q 197 225 197 378 
Q 197 528 301 651 
Q 406 775 563 775 
Q 669 775 741 711 
Q 813 647 813 544 
Q 813 409 723 309 
Q 634 209 500 184 
z
" transform="scale(0.015625)"/>
     </defs>
     <use xlink:href="#Cmmi10-79" transform="translate(0 0.78125)"/>
     <use xlink:href="#Cmsy10-2219" transform="translate(66.582031 0.78125)"/>
     <use xlink:href="#Cmmi10-61" transform="translate(161.826172 0.78125)"/>
     <use xlink:href="#Cmsy10-a1" transform="translate(232.167969 0.78125)"/>
     <use xlink:href="#Cmmi10-61" transform="translate(327.412109 39.06875) scale(0.7)"/>
     <use xlink:href="#Cmmi10-62" transform="translate(330.412109 -41.542187) scale(0.7)"/>
     <use xlink:href="#Cmsy10-a2" transform="translate(394.418945 0.78125)"/>
     <use xlink:href="#Cmmi10-78" transform="translate(439.663086 0.78125)"/>
     <path d="M 327.412109 13.28125 
L 327.412109 19.53125 
L 364.360352 19.53125 
L 364.360352 13.28125 
L 327.412109 13.28125 
z
"/>
    </g>
   </g>
   <g id="legend_1">
    <g id="patch_8">
     <path d="M 378.2625 32.198437 
L 459.9625 32.198437 
Q 461.9625 32.198437 461.9625 30.198437 
L 461.9625 14.2 
Q 461.9625 12.2 459.9625 12.2 
L 378.2625 12.2 
Q 376.2625 12.2 376.2625 14.2 
L 376.2625 30.198437 
Q 376.2625 32.198437 378.2625 32.198437 
z
" style="fill: #ffffff; opacity: 0.8; stroke: #cccccc; stroke-linejoin: miter"/>
    </g>
    <g id="line2d_36">
     <path d="M 380.2625 20.298437 
L 390.2625 20.298437 
L 400.2625 20.298437 
" style="fill: none; stroke: #0000ff; stroke-width: 1.5; stroke-linecap: square"/>
    </g>
    <g id="text_18">
     <!-- $y = a - \frac{a}{b}\cdot x$ -->
     <g transform="translate(408.2625 23.798437) scale(0.1 -0.1)">
      <defs>
       <path id="Cmr10-3d" d="M 481 850 
Q 428 850 393 890 
Q 359 931 359 978 
Q 359 1031 393 1068 
Q 428 1106 481 1106 
L 4500 1106 
Q 4547 1106 4581 1068 
Q 4616 1031 4616 978 
Q 4616 931 4581 890 
Q 4547 850 4500 850 
L 481 850 
z
M 481 2094 
Q 428 2094 393 2131 
Q 359 2169 359 2222 
Q 359 2269 393 2309 
Q 428 2350 481 2350 
L 4500 2350 
Q 4547 2350 4581 2309 
Q 4616 2269 4616 2222 
Q 4616 2169 4581 2131 
Q 4547 2094 4500 2094 
L 481 2094 
z
" transform="scale(0.015625)"/>
      </defs>
      <use xlink:href="#Cmmi10-79" transform="translate(0 0.78125)"/>
      <use xlink:href="#Cmr10-3d" transform="translate(66.582031 0.78125)"/>
      <use xlink:href="#Cmmi10-61" transform="translate(161.826172 0.78125)"/>
      <use xlink:href="#Cmsy10-a1" transform="translate(232.167969 0.78125)"/>
      <use xlink:href="#Cmmi10-61" transform="translate(327.412109 39.06875) scale(0.7)"/>
      <use xlink:href="#Cmmi10-62" transform="translate(330.412109 -41.542187) scale(0.7)"/>
      <use xlink:href="#Cmsy10-a2" transform="translate(394.418945 0.78125)"/>
      <use xlink:href="#Cmmi10-78" transform="translate(439.663086 0.78125)"/>
      <path d="M 327.412109 13.28125 
L 327.412109 19.53125 
L 364.360352 19.53125 
L 364.360352 13.28125 
L 327.412109 13.28125 
z
"/>
     </g>
    </g>
   </g>
  </g>
 </g>
 <defs>
  <clipPath id="pd2713cb26d">
   <rect x="20.5625" y="7.2" width="446.4" height="332.64"/>
  </clipPath>
 </defs>
</svg>
