<svg width="3882" height="2148" xmlns="http://www.w3.org/2000/svg" xmlns:xlink="http://www.w3.org/1999/xlink" xml:space="preserve" overflow="hidden"><g transform="translate(-171 -212)"><path d="M398 1366 398 919 1058 1366Z" stroke="#000000" stroke-width="10.3125" stroke-miterlimit="8" fill="none" fill-rule="evenodd"/><path d="M2027 919 2027 1366 1367 919Z" stroke="#000000" stroke-width="10.3125" stroke-miterlimit="8" fill="none" fill-rule="evenodd"/><rect x="2336" y="905" width="664" height="447" stroke="#000000" stroke-width="10.3125" stroke-miterlimit="8" fill="none"/><path d="M3351.87 872.893 4020.44 1319.56 3977.56 1383.75 3308.99 937.084Z" stroke="#000000" stroke-width="10.3125" stroke-miterlimit="8" fill="none" fill-rule="evenodd"/><path d="M2027 222 2027 669 1367 222Z" stroke="#000000" stroke-width="10.3125" stroke-miterlimit="8" fill="none" fill-rule="evenodd"/><path d="M398 669 398 222 1058 669Z" stroke="#000000" stroke-width="10.3125" stroke-miterlimit="8" fill="none" fill-rule="evenodd"/><path d="M302 1366C267.206 1366 239 1361.3 239 1355.5L239 804.499C239 798.701 210.794 794 176 794 210.794 794 239 789.299 239 783.501L239 232.499C239 226.701 267.206 222 302 222" stroke="#000000" stroke-width="10.3125" stroke-miterlimit="8" fill="none" fill-rule="evenodd"/><path d="M420 1963.75 742.5 1963.75 742.5 1919 832 2008.5 742.5 2098 742.5 2053.25 420 2053.25Z" stroke="#000000" stroke-width="10.3125" stroke-miterlimit="8" fill="none" fill-rule="evenodd"/><path d="M1367 2232 1367 1785 2027 2232Z" stroke="#000000" stroke-width="10.3125" stroke-miterlimit="8" fill="none" fill-rule="evenodd"/><rect x="2336" y="1542" width="664" height="447" stroke="#000000" stroke-width="10.3125" stroke-miterlimit="8" fill="none"/><path d="M3351.87 1510.25 4020.44 1956.91 3977.56 2021.1 3308.99 1574.44Z" stroke="#000000" stroke-width="10.3125" stroke-miterlimit="8" fill="none" fill-rule="evenodd"/><path d="M2284 2050 4047.95 2050" stroke="#000000" stroke-width="10.3125" stroke-miterlimit="8" fill="none" fill-rule="evenodd"/><text font-family="Cambria Math,Cambria Math_MSFontService,sans-serif" font-weight="400" font-size="128" transform="matrix(1 0 0 1 1177.73 1175)">+</text><text font-family="Cambria Math,Cambria Math_MSFontService,sans-serif" font-weight="400" font-size="128" transform="matrix(1 0 0 1 2146.53 1175)">=</text><text font-family="Cambria Math,Cambria Math_MSFontService,sans-serif" font-weight="400" font-size="128" transform="matrix(1 0 0 1 3119.96 1189)">+</text><text font-family="Cambria Math,Cambria Math_MSFontService,sans-serif" font-weight="400" font-size="128" transform="matrix(1 0 0 1 1177.73 493)">=</text><text font-family="Cambria Math,Cambria Math_MSFontService,sans-serif" font-weight="400" font-size="128" transform="matrix(1 0 0 1 3119.96 1827)">+</text><text font-family="Cambria Math,Cambria Math_MSFontService,sans-serif" font-weight="400" font-size="128" transform="matrix(1 0 0 1 2146.52 2098)">=</text><text font-family="Cambria Math,Cambria Math_MSFontService,sans-serif" font-weight="400" font-size="128" transform="matrix(1 0 0 1 3132.72 2253)">2</text></g></svg>