<?xml version="1.0" standalone="no"?>
<svg xmlns="http://www.w3.org/2000/svg" width="500" height="500"><defs><clipPath id="clip-path-dot-color"><circle cx="26" cy="152" r="7" transform="rotate(0,26,152)"/><path d="M 19 173v 14h 7a 7 7, 0, 0, 0, 0 -14" transform="rotate(-90,26,180)"/><path d="M 19 187v 14h 14v -7a 7 7, 0, 0, 0, -7 -7" transform="rotate(180,26,194)"/><path d="M 19 215v 14h 7a 7 7, 0, 0, 0, 0 -14" transform="rotate(-90,26,222)"/><path d="M 19 229v 14h 14v -7a 7 7, 0, 0, 0, -7 -7" transform="rotate(180,26,236)"/><path d="M 19 285v 14h 7a 7 7, 0, 0, 0, 0 -14" transform="rotate(-90,26,292)"/><rect x="19" y="299" width="14" height="14" transform="rotate(0,26,306)"/><path d="M 19 313v 14h 7a 7 7, 0, 0, 0, 0 -14" transform="rotate(90,26,320)"/><path d="M 19 341v 14h 14v -7a 7 7, 0, 0, 0, -7 -7" transform="rotate(-90,26,348)"/><path d="M 19 355v 14h 14v -7a 7 7, 0, 0, 0, -7 -7" transform="rotate(180,26,362)"/><path d="M 33 131v 14h 7a 7 7, 0, 0, 0, 0 -14" transform="rotate(180,40,138)"/><circle cx="40" cy="166" r="7" transform="rotate(0,40,166)"/><rect x="33" y="187" width="14" height="14" transform="rotate(0,40,194)"/><path d="M 33 229v 14h 14v -7a 7 7, 0, 0, 0, -7 -7" transform="rotate(0,40,236)"/><rect x="33" y="243" width="14" height="14" transform="rotate(0,40,250)"/><path d="M 33 257v 14h 7a 7 7, 0, 0, 0, 0 -14" transform="rotate(90,40,264)"/><rect x="33" y="299" width="14" height="14" transform="rotate(0,40,306)"/><rect x="33" y="341" width="14" height="14" transform="rotate(0,40,348)"/><path d="M 33 355v 14h 14v -7a 7 7, 0, 0, 0, -7 -7" transform="rotate(90,40,362)"/><path d="M 47 131v 14h 14v -7a 7 7, 0, 0, 0, -7 -7" transform="rotate(0,54,138)"/><path d="M 47 145v 14h 14v -7a 7 7, 0, 0, 0, -7 -7" transform="rotate(180,54,152)"/><rect x="47" y="187" width="14" height="14" transform="rotate(0,54,194)"/><rect x="47" y="201" width="14" height="14" transform="rotate(0,54,208)"/><path d="M 47 215v 14h 7a 7 7, 0, 0, 0, 0 -14" transform="rotate(90,54,222)"/><path d="M 47 243v 14h 7a 7 7, 0, 0, 0, 0 -14" transform="rotate(0,54,250)"/><path d="M 47 271v 14h 14v -7a 7 7, 0, 0, 0, -7 -7" transform="rotate(-90,54,278)"/><rect x="47" y="285" width="14" height="14" transform="rotate(0,54,292)"/><path d="M 47 299v 14h 14v -7a 7 7, 0, 0, 0, -7 -7" transform="rotate(90,54,306)"/><path d="M 47 341v 14h 7a 7 7, 0, 0, 0, 0 -14" transform="rotate(0,54,348)"/><rect x="61" y="145" width="14" height="14" transform="rotate(0,68,152)"/><rect x="61" y="187" width="14" height="14" transform="rotate(0,68,194)"/><rect x="61" y="201" width="14" height="14" transform="rotate(0,68,208)"/><path d="M 61 229v 14h 7a 7 7, 0, 0, 0, 0 -14" transform="rotate(180,68,236)"/><rect x="61" y="271" width="14" height="14" transform="rotate(0,68,278)"/><path d="M 61 313v 14h 7a 7 7, 0, 0, 0, 0 -14" transform="rotate(180,68,320)"/><path d="M 61 355v 14h 7a 7 7, 0, 0, 0, 0 -14" transform="rotate(180,68,362)"/><path d="M 75 145v 14h 7a 7 7, 0, 0, 0, 0 -14" transform="rotate(0,82,152)"/><path d="M 75 187v 14h 14v -7a 7 7, 0, 0, 0, -7 -7" transform="rotate(0,82,194)"/><path d="M 75 201v 14h 14v -7a 7 7, 0, 0, 0, -7 -7" transform="rotate(90,82,208)"/><rect x="75" y="229" width="14" height="14" transform="rotate(0,82,236)"/><path d="M 75 271v 14h 7a 7 7, 0, 0, 0, 0 -14" transform="rotate(0,82,278)"/><rect x="75" y="313" width="14" height="14" transform="rotate(0,82,320)"/><rect x="75" y="327" width="14" height="14" transform="rotate(0,82,334)"/><rect x="75" y="341" width="14" height="14" transform="rotate(0,82,348)"/><path d="M 75 355v 14h 14v -7a 7 7, 0, 0, 0, -7 -7" transform="rotate(90,82,362)"/><path d="M 89 159v 14h 7a 7 7, 0, 0, 0, 0 -14" transform="rotate(180,96,166)"/><path d="M 89 229v 14h 14v -7a 7 7, 0, 0, 0, -7 -7" transform="rotate(0,96,236)"/><path d="M 89 243v 14h 14v -7a 7 7, 0, 0, 0, -7 -7" transform="rotate(180,96,250)"/><path d="M 89 313v 14h 7a 7 7, 0, 0, 0, 0 -14" transform="rotate(0,96,320)"/><path d="M 89 341v 14h 7a 7 7, 0, 0, 0, 0 -14" transform="rotate(0,96,348)"/><circle cx="110" cy="138" r="7" transform="rotate(0,110,138)"/><rect x="103" y="159" width="14" height="14" transform="rotate(0,110,166)"/><circle cx="110" cy="194" r="7" transform="rotate(0,110,194)"/><path d="M 103 215v 14h 7a 7 7, 0, 0, 0, 0 -14" transform="rotate(180,110,222)"/><path d="M 103 243v 14h 7a 7 7, 0, 0, 0, 0 -14" transform="rotate(0,110,250)"/><circle cx="110" cy="278" r="7" transform="rotate(0,110,278)"/><circle cx="110" cy="306" r="7" transform="rotate(0,110,306)"/><circle cx="110" cy="334" r="7" transform="rotate(0,110,334)"/><path d="M 103 355v 14h 7a 7 7, 0, 0, 0, 0 -14" transform="rotate(180,110,362)"/><path d="M 117 145v 14h 14v -7a 7 7, 0, 0, 0, -7 -7" transform="rotate(-90,124,152)"/><rect x="117" y="159" width="14" height="14" transform="rotate(0,124,166)"/><path d="M 117 173v 14h 7a 7 7, 0, 0, 0, 0 -14" transform="rotate(90,124,180)"/><rect x="117" y="215" width="14" height="14" transform="rotate(0,124,222)"/><path d="M 117 229v 14h 7a 7 7, 0, 0, 0, 0 -14" transform="rotate(90,124,236)"/><path d="M 117 257v 14h 7a 7 7, 0, 0, 0, 0 -14" transform="rotate(180,124,264)"/><circle cx="124" cy="292" r="7" transform="rotate(0,124,292)"/><rect x="117" y="355" width="14" height="14" transform="rotate(0,124,362)"/><path d="M 131 33v 14h 14v -7a 7 7, 0, 0, 0, -7 -7" transform="rotate(-90,138,40)"/><rect x="131" y="47" width="14" height="14" transform="rotate(0,138,54)"/><path d="M 131 61v 14h 7a 7 7, 0, 0, 0, 0 -14" transform="rotate(90,138,68)"/><path d="M 131 89v 14h 14v -7a 7 7, 0, 0, 0, -7 -7" transform="rotate(-90,138,96)"/><path d="M 131 103v 14h 7a 7 7, 0, 0, 0, 0 -14" transform="rotate(90,138,110)"/><path d="M 131 145v 14h 7a 7 7, 0, 0, 0, 0 -14" transform="rotate(0,138,152)"/><path d="M 131 201v 14h 14v -7a 7 7, 0, 0, 0, -7 -7" transform="rotate(-90,138,208)"/><path d="M 131 215v 14h 14v -7a 7 7, 0, 0, 0, -7 -7" transform="rotate(90,138,222)"/><rect x="131" y="257" width="14" height="14" transform="rotate(0,138,264)"/><path d="M 131 271v 14h 7a 7 7, 0, 0, 0, 0 -14" transform="rotate(90,138,278)"/><path d="M 131 299v 14h 14v -7a 7 7, 0, 0, 0, -7 -7" transform="rotate(-90,138,306)"/><path d="M 131 313v 14h 7a 7 7, 0, 0, 0, 0 -14" transform="rotate(90,138,320)"/><path d="M 131 341v 14h 14v -7a 7 7, 0, 0, 0, -7 -7" transform="rotate(-90,138,348)"/><path d="M 131 355v 14h 14v -7a 7 7, 0, 0, 0, -7 -7" transform="rotate(90,138,362)"/><path d="M 131 439v 14h 14v -7a 7 7, 0, 0, 0, -7 -7" transform="rotate(-90,138,446)"/><path d="M 131 453v 14h 14v -7a 7 7, 0, 0, 0, -7 -7" transform="rotate(180,138,460)"/><path d="M 145 33v 14h 7a 7 7, 0, 0, 0, 0 -14" transform="rotate(0,152,40)"/><path d="M 145 89v 14h 7a 7 7, 0, 0, 0, 0 -14" transform="rotate(0,152,96)"/><path d="M 145 173v 14h 14v -7a 7 7, 0, 0, 0, -7 -7" transform="rotate(-90,152,180)"/><rect x="145" y="187" width="14" height="14" transform="rotate(0,152,194)"/><path d="M 145 201v 14h 14v -7a 7 7, 0, 0, 0, -7 -7" transform="rotate(90,152,208)"/><path d="M 145 229v 14h 7a 7 7, 0, 0, 0, 0 -14" transform="rotate(180,152,236)"/><path d="M 145 257v 14h 7a 7 7, 0, 0, 0, 0 -14" transform="rotate(0,152,264)"/><rect x="145" y="299" width="14" height="14" transform="rotate(0,152,306)"/><rect x="145" y="341" width="14" height="14" transform="rotate(0,152,348)"/><path d="M 145 383v 14h 14v -7a 7 7, 0, 0, 0, -7 -7" transform="rotate(-90,152,390)"/><path d="M 145 397v 14h 14v -7a 7 7, 0, 0, 0, -7 -7" transform="rotate(180,152,404)"/><path d="M 145 425v 14h 14v -7a 7 7, 0, 0, 0, -7 -7" transform="rotate(-90,152,432)"/><rect x="145" y="439" width="14" height="14" transform="rotate(0,152,446)"/><rect x="145" y="453" width="14" height="14" transform="rotate(0,152,460)"/><circle cx="166" cy="26" r="7" transform="rotate(0,166,26)"/><path d="M 159 47v 14h 7a 7 7, 0, 0, 0, 0 -14" transform="rotate(-90,166,54)"/><path d="M 159 61v 14h 7a 7 7, 0, 0, 0, 0 -14" transform="rotate(90,166,68)"/><path d="M 159 103v 14h 7a 7 7, 0, 0, 0, 0 -14" transform="rotate(-90,166,110)"/><path d="M 159 117v 14h 14v -7a 7 7, 0, 0, 0, -7 -7" transform="rotate(180,166,124)"/><rect x="159" y="173" width="14" height="14" transform="rotate(0,166,180)"/><path d="M 159 215v 14h 14v -7a 7 7, 0, 0, 0, -7 -7" transform="rotate(-90,166,222)"/><rect x="159" y="229" width="14" height="14" transform="rotate(0,166,236)"/><path d="M 159 243v 14h 7a 7 7, 0, 0, 0, 0 -14" transform="rotate(90,166,250)"/><circle cx="166" cy="278" r="7" transform="rotate(0,166,278)"/><rect x="159" y="299" width="14" height="14" transform="rotate(0,166,306)"/><rect x="159" y="313" width="14" height="14" transform="rotate(0,166,320)"/><rect x="159" y="327" width="14" height="14" transform="rotate(0,166,334)"/><rect x="159" y="341" width="14" height="14" transform="rotate(0,166,348)"/><rect x="159" y="355" width="14" height="14" transform="rotate(0,166,362)"/><rect x="159" y="369" width="14" height="14" transform="rotate(0,166,376)"/><rect x="159" y="383" width="14" height="14" transform="rotate(0,166,390)"/><rect x="159" y="397" width="14" height="14" transform="rotate(0,166,404)"/><rect x="159" y="411" width="14" height="14" transform="rotate(0,166,418)"/><rect x="159" y="425" width="14" height="14" transform="rotate(0,166,432)"/><path d="M 159 453v 14h 14v -7a 7 7, 0, 0, 0, -7 -7" transform="rotate(0,166,460)"/><path d="M 159 467v 14h 7a 7 7, 0, 0, 0, 0 -14" transform="rotate(90,166,474)"/><circle cx="180" cy="96" r="7" transform="rotate(0,180,96)"/><rect x="173" y="117" width="14" height="14" transform="rotate(0,180,124)"/><path d="M 173 145v 14h 7a 7 7, 0, 0, 0, 0 -14" transform="rotate(-90,180,152)"/><rect x="173" y="159" width="14" height="14" transform="rotate(0,180,166)"/><rect x="173" y="173" width="14" height="14" transform="rotate(0,180,180)"/><path d="M 173 187v 14h 7a 7 7, 0, 0, 0, 0 -14" transform="rotate(90,180,194)"/><rect x="173" y="215" width="14" height="14" transform="rotate(0,180,222)"/><circle cx="180" cy="264" r="7" transform="rotate(0,180,264)"/><rect x="173" y="299" width="14" height="14" transform="rotate(0,180,306)"/><rect x="173" y="313" width="14" height="14" transform="rotate(0,180,320)"/><rect x="173" y="327" width="14" height="14" transform="rotate(0,180,334)"/><rect x="173" y="355" width="14" height="14" transform="rotate(0,180,362)"/><rect x="173" y="369" width="14" height="14" transform="rotate(0,180,376)"/><rect x="173" y="397" width="14" height="14" transform="rotate(0,180,404)"/><rect x="173" y="425" width="14" height="14" transform="rotate(0,180,432)"/><path d="M 187 19v 14h 14v -7a 7 7, 0, 0, 0, -7 -7" transform="rotate(-90,194,26)"/><path d="M 187 33v 14h 14v -7a 7 7, 0, 0, 0, -7 -7" transform="rotate(180,194,40)"/><path d="M 187 103v 14h 7a 7 7, 0, 0, 0, 0 -14" transform="rotate(-90,194,110)"/><rect x="187" y="117" width="14" height="14" transform="rotate(0,194,124)"/><path d="M 187 131v 14h 14v -7a 7 7, 0, 0, 0, -7 -7" transform="rotate(180,194,138)"/><path d="M 187 215v 14h 7a 7 7, 0, 0, 0, 0 -14" transform="rotate(0,194,222)"/><path d="M 187 243v 14h 7a 7 7, 0, 0, 0, 0 -14" transform="rotate(180,194,250)"/><path d="M 187 285v 14h 7a 7 7, 0, 0, 0, 0 -14" transform="rotate(-90,194,292)"/><rect x="187" y="299" width="14" height="14" transform="rotate(0,194,306)"/><rect x="187" y="313" width="14" height="14" transform="rotate(0,194,320)"/><rect x="187" y="327" width="14" height="14" transform="rotate(0,194,334)"/><rect x="187" y="341" width="14" height="14" transform="rotate(0,194,348)"/><rect x="187" y="355" width="14" height="14" transform="rotate(0,194,362)"/><rect x="187" y="369" width="14" height="14" transform="rotate(0,194,376)"/><rect x="187" y="397" width="14" height="14" transform="rotate(0,194,404)"/><rect x="187" y="425" width="14" height="14" transform="rotate(0,194,432)"/><path d="M 187 453v 14h 14v -7a 7 7, 0, 0, 0, -7 -7" transform="rotate(-90,194,460)"/><path d="M 187 467v 14h 7a 7 7, 0, 0, 0, 0 -14" transform="rotate(90,194,474)"/><path d="M 201 19v 14h 14v -7a 7 7, 0, 0, 0, -7 -7" transform="rotate(0,208,26)"/><path d="M 201 33v 14h 14v -7a 7 7, 0, 0, 0, -7 -7" transform="rotate(90,208,40)"/><path d="M 201 61v 14h 7a 7 7, 0, 0, 0, 0 -14" transform="rotate(180,208,68)"/><circle cx="208" cy="96" r="7" transform="rotate(0,208,96)"/><path d="M 201 131v 14h 7a 7 7, 0, 0, 0, 0 -14" transform="rotate(0,208,138)"/><path d="M 201 187v 14h 7a 7 7, 0, 0, 0, 0 -14" transform="rotate(180,208,194)"/><path d="M 201 243v 14h 7a 7 7, 0, 0, 0, 0 -14" transform="rotate(0,208,250)"/><rect x="201" y="299" width="14" height="14" transform="rotate(0,208,306)"/><path d="M 201 341v 14h 7a 7 7, 0, 0, 0, 0 -14" transform="rotate(0,208,348)"/><path d="M 201 369v 14h 7a 7 7, 0, 0, 0, 0 -14" transform="rotate(0,208,376)"/><path d="M 201 397v 14h 7a 7 7, 0, 0, 0, 0 -14" transform="rotate(0,208,404)"/><path d="M 201 425v 14h 14v -7a 7 7, 0, 0, 0, -7 -7" transform="rotate(0,208,432)"/><rect x="201" y="439" width="14" height="14" transform="rotate(0,208,446)"/><path d="M 201 453v 14h 14v -7a 7 7, 0, 0, 0, -7 -7" transform="rotate(90,208,460)"/><path d="M 215 61v 14h 14v -7a 7 7, 0, 0, 0, -7 -7" transform="rotate(0,222,68)"/><path d="M 215 75v 14h 14v -7a 7 7, 0, 0, 0, -7 -7" transform="rotate(180,222,82)"/><circle cx="222" cy="110" r="7" transform="rotate(0,222,110)"/><path d="M 215 145v 14h 14v -7a 7 7, 0, 0, 0, -7 -7" transform="rotate(-90,222,152)"/><path d="M 215 159v 14h 14v -7a 7 7, 0, 0, 0, -7 -7" transform="rotate(180,222,166)"/><path d="M 215 187v 14h 7a 7 7, 0, 0, 0, 0 -14" transform="rotate(0,222,194)"/><path d="M 215 285v 14h 7a 7 7, 0, 0, 0, 0 -14" transform="rotate(-90,222,292)"/><rect x="215" y="299" width="14" height="14" transform="rotate(0,222,306)"/><path d="M 215 313v 14h 14v -7a 7 7, 0, 0, 0, -7 -7" transform="rotate(180,222,320)"/><path d="M 215 383v 14h 7a 7 7, 0, 0, 0, 0 -14" transform="rotate(180,222,390)"/><rect x="215" y="439" width="14" height="14" transform="rotate(0,222,446)"/><path d="M 229 33v 14h 7a 7 7, 0, 0, 0, 0 -14" transform="rotate(180,236,40)"/><rect x="229" y="75" width="14" height="14" transform="rotate(0,236,82)"/><path d="M 229 131v 14h 7a 7 7, 0, 0, 0, 0 -14" transform="rotate(-90,236,138)"/><rect x="229" y="145" width="14" height="14" transform="rotate(0,236,152)"/><rect x="229" y="159" width="14" height="14" transform="rotate(0,236,166)"/><path d="M 229 173v 14h 14v -7a 7 7, 0, 0, 0, -7 -7" transform="rotate(180,236,180)"/><circle cx="236" cy="236" r="7" transform="rotate(0,236,236)"/><path d="M 229 271v 14h 7a 7 7, 0, 0, 0, 0 -14" transform="rotate(180,236,278)"/><rect x="229" y="313" width="14" height="14" transform="rotate(0,236,320)"/><rect x="229" y="327" width="14" height="14" transform="rotate(0,236,334)"/><path d="M 229 341v 14h 14v -7a 7 7, 0, 0, 0, -7 -7" transform="rotate(180,236,348)"/><path d="M 229 369v 14h 14v -7a 7 7, 0, 0, 0, -7 -7" transform="rotate(-90,236,376)"/><rect x="229" y="383" width="14" height="14" transform="rotate(0,236,390)"/><path d="M 229 425v 14h 7a 7 7, 0, 0, 0, 0 -14" transform="rotate(-90,236,432)"/><rect x="229" y="439" width="14" height="14" transform="rotate(0,236,446)"/><path d="M 243 19v 14h 7a 7 7, 0, 0, 0, 0 -14" transform="rotate(-90,250,26)"/><path d="M 243 33v 14h 14v -7a 7 7, 0, 0, 0, -7 -7" transform="rotate(90,250,40)"/><rect x="243" y="75" width="14" height="14" transform="rotate(0,250,82)"/><circle cx="250" cy="110" r="7" transform="rotate(0,250,110)"/><path d="M 243 173v 14h 7a 7 7, 0, 0, 0, 0 -14" transform="rotate(0,250,180)"/><circle cx="250" cy="222" r="7" transform="rotate(0,250,222)"/><circle cx="250" cy="250" r="7" transform="rotate(0,250,250)"/><rect x="243" y="271" width="14" height="14" transform="rotate(0,250,278)"/><path d="M 243 299v 14h 14v -7a 7 7, 0, 0, 0, -7 -7" transform="rotate(-90,250,306)"/><rect x="243" y="313" width="14" height="14" transform="rotate(0,250,320)"/><rect x="243" y="327" width="14" height="14" transform="rotate(0,250,334)"/><rect x="243" y="341" width="14" height="14" transform="rotate(0,250,348)"/><rect x="243" y="369" width="14" height="14" transform="rotate(0,250,376)"/><rect x="243" y="383" width="14" height="14" transform="rotate(0,250,390)"/><path d="M 243 411v 14h 7a 7 7, 0, 0, 0, 0 -14" transform="rotate(180,250,418)"/><path d="M 243 439v 14h 7a 7 7, 0, 0, 0, 0 -14" transform="rotate(0,250,446)"/><path d="M 257 75v 14h 14v -7a 7 7, 0, 0, 0, -7 -7" transform="rotate(0,264,82)"/><path d="M 257 89v 14h 7a 7 7, 0, 0, 0, 0 -14" transform="rotate(90,264,96)"/><path d="M 257 117v 14h 7a 7 7, 0, 0, 0, 0 -14" transform="rotate(180,264,124)"/><path d="M 257 187v 14h 7a 7 7, 0, 0, 0, 0 -14" transform="rotate(-90,264,194)"/><path d="M 257 201v 14h 14v -7a 7 7, 0, 0, 0, -7 -7" transform="rotate(180,264,208)"/><circle cx="264" cy="236" r="7" transform="rotate(0,264,236)"/><path d="M 257 257v 14h 14v -7a 7 7, 0, 0, 0, -7 -7" transform="rotate(-90,264,264)"/><path d="M 257 271v 14h 14v -7a 7 7, 0, 0, 0, -7 -7" transform="rotate(90,264,278)"/><path d="M 257 299v 14h 7a 7 7, 0, 0, 0, 0 -14" transform="rotate(0,264,306)"/><path d="M 257 327v 14h 14v -7a 7 7, 0, 0, 0, -7 -7" transform="rotate(0,264,334)"/><rect x="257" y="341" width="14" height="14" transform="rotate(0,264,348)"/><rect x="257" y="355" width="14" height="14" transform="rotate(0,264,362)"/><rect x="257" y="369" width="14" height="14" transform="rotate(0,264,376)"/><path d="M 257 383v 14h 14v -7a 7 7, 0, 0, 0, -7 -7" transform="rotate(90,264,390)"/><rect x="257" y="411" width="14" height="14" transform="rotate(0,264,418)"/><path d="M 257 425v 14h 7a 7 7, 0, 0, 0, 0 -14" transform="rotate(90,264,432)"/><path d="M 257 453v 14h 7a 7 7, 0, 0, 0, 0 -14" transform="rotate(180,264,460)"/><path d="M 271 33v 14h 7a 7 7, 0, 0, 0, 0 -14" transform="rotate(-90,278,40)"/><path d="M 271 47v 14h 7a 7 7, 0, 0, 0, 0 -14" transform="rotate(90,278,54)"/><path d="M 271 103v 14h 7a 7 7, 0, 0, 0, 0 -14" transform="rotate(-90,278,110)"/><rect x="271" y="117" width="14" height="14" transform="rotate(0,278,124)"/><rect x="271" y="131" width="14" height="14" transform="rotate(0,278,138)"/><rect x="271" y="145" width="14" height="14" transform="rotate(0,278,152)"/><rect x="271" y="159" width="14" height="14" transform="rotate(0,278,166)"/><path d="M 271 173v 14h 14v -7a 7 7, 0, 0, 0, -7 -7" transform="rotate(180,278,180)"/><rect x="271" y="201" width="14" height="14" transform="rotate(0,278,208)"/><path d="M 271 243v 14h 7a 7 7, 0, 0, 0, 0 -14" transform="rotate(-90,278,250)"/><rect x="271" y="257" width="14" height="14" transform="rotate(0,278,264)"/><circle cx="278" cy="320" r="7" transform="rotate(0,278,320)"/><path d="M 271 355v 14h 7a 7 7, 0, 0, 0, 0 -14" transform="rotate(0,278,362)"/><path d="M 271 397v 14h 7a 7 7, 0, 0, 0, 0 -14" transform="rotate(-90,278,404)"/><rect x="271" y="411" width="14" height="14" transform="rotate(0,278,418)"/><path d="M 271 439v 14h 7a 7 7, 0, 0, 0, 0 -14" transform="rotate(-90,278,446)"/><rect x="271" y="453" width="14" height="14" transform="rotate(0,278,460)"/><path d="M 285 19v 14h 7a 7 7, 0, 0, 0, 0 -14" transform="rotate(180,292,26)"/><circle cx="292" cy="68" r="7" transform="rotate(0,292,68)"/><path d="M 285 117v 14h 7a 7 7, 0, 0, 0, 0 -14" transform="rotate(0,292,124)"/><rect x="285" y="145" width="14" height="14" transform="rotate(0,292,152)"/><rect x="285" y="159" width="14" height="14" transform="rotate(0,292,166)"/><path d="M 285 173v 14h 14v -7a 7 7, 0, 0, 0, -7 -7" transform="rotate(90,292,180)"/><path d="M 285 201v 14h 14v -7a 7 7, 0, 0, 0, -7 -7" transform="rotate(0,292,208)"/><path d="M 285 215v 14h 7a 7 7, 0, 0, 0, 0 -14" transform="rotate(90,292,222)"/><path d="M 285 257v 14h 14v -7a 7 7, 0, 0, 0, -7 -7" transform="rotate(0,292,264)"/><rect x="285" y="271" width="14" height="14" transform="rotate(0,292,278)"/><rect x="285" y="285" width="14" height="14" transform="rotate(0,292,292)"/><path d="M 285 299v 14h 7a 7 7, 0, 0, 0, 0 -14" transform="rotate(90,292,306)"/><path d="M 285 327v 14h 7a 7 7, 0, 0, 0, 0 -14" transform="rotate(180,292,334)"/><circle cx="292" cy="390" r="7" transform="rotate(0,292,390)"/><path d="M 285 411v 14h 7a 7 7, 0, 0, 0, 0 -14" transform="rotate(0,292,418)"/><path d="M 285 453v 14h 7a 7 7, 0, 0, 0, 0 -14" transform="rotate(0,292,460)"/><rect x="299" y="19" width="14" height="14" transform="rotate(0,306,26)"/><circle cx="306" cy="54" r="7" transform="rotate(0,306,54)"/><circle cx="306" cy="110" r="7" transform="rotate(0,306,110)"/><path d="M 299 131v 14h 7a 7 7, 0, 0, 0, 0 -14" transform="rotate(-90,306,138)"/><rect x="299" y="145" width="14" height="14" transform="rotate(0,306,152)"/><rect x="299" y="159" width="14" height="14" transform="rotate(0,306,166)"/><path d="M 299 271v 14h 14v -7a 7 7, 0, 0, 0, -7 -7" transform="rotate(0,306,278)"/><path d="M 299 285v 14h 14v -7a 7 7, 0, 0, 0, -7 -7" transform="rotate(90,306,292)"/><rect x="299" y="327" width="14" height="14" transform="rotate(0,306,334)"/><path d="M 299 355v 14h 14v -7a 7 7, 0, 0, 0, -7 -7" transform="rotate(-90,306,362)"/><path d="M 299 369v 14h 14v -7a 7 7, 0, 0, 0, -7 -7" transform="rotate(180,306,376)"/><path d="M 299 425v 14h 7a 7 7, 0, 0, 0, 0 -14" transform="rotate(-90,306,432)"/><path d="M 299 439v 14h 14v -7a 7 7, 0, 0, 0, -7 -7" transform="rotate(180,306,446)"/><path d="M 313 19v 14h 14v -7a 7 7, 0, 0, 0, -7 -7" transform="rotate(0,320,26)"/><path d="M 313 33v 14h 7a 7 7, 0, 0, 0, 0 -14" transform="rotate(90,320,40)"/><path d="M 313 75v 14h 7a 7 7, 0, 0, 0, 0 -14" transform="rotate(-90,320,82)"/><path d="M 313 89v 14h 14v -7a 7 7, 0, 0, 0, -7 -7" transform="rotate(180,320,96)"/><path d="M 313 159v 14h 14v -7a 7 7, 0, 0, 0, -7 -7" transform="rotate(0,320,166)"/><rect x="313" y="173" width="14" height="14" transform="rotate(0,320,180)"/><path d="M 313 187v 14h 14v -7a 7 7, 0, 0, 0, -7 -7" transform="rotate(180,320,194)"/><path d="M 313 257v 14h 7a 7 7, 0, 0, 0, 0 -14" transform="rotate(180,320,264)"/><path d="M 313 299v 14h 7a 7 7, 0, 0, 0, 0 -14" transform="rotate(180,320,306)"/><rect x="313" y="327" width="14" height="14" transform="rotate(0,320,334)"/><rect x="313" y="341" width="14" height="14" transform="rotate(0,320,348)"/><rect x="313" y="355" width="14" height="14" transform="rotate(0,320,362)"/><rect x="313" y="369" width="14" height="14" transform="rotate(0,320,376)"/><path d="M 313 383v 14h 14v -7a 7 7, 0, 0, 0, -7 -7" transform="rotate(180,320,390)"/><rect x="313" y="439" width="14" height="14" transform="rotate(0,320,446)"/><path d="M 313 467v 14h 7a 7 7, 0, 0, 0, 0 -14" transform="rotate(180,320,474)"/><path d="M 327 89v 14h 14v -7a 7 7, 0, 0, 0, -7 -7" transform="rotate(0,334,96)"/><rect x="327" y="103" width="14" height="14" transform="rotate(0,334,110)"/><rect x="327" y="117" width="14" height="14" transform="rotate(0,334,124)"/><rect x="327" y="131" width="14" height="14" transform="rotate(0,334,138)"/><path d="M 327 145v 14h 14v -7a 7 7, 0, 0, 0, -7 -7" transform="rotate(180,334,152)"/><path d="M 327 173v 14h 14v -7a 7 7, 0, 0, 0, -7 -7" transform="rotate(0,334,180)"/><rect x="327" y="187" width="14" height="14" transform="rotate(0,334,194)"/><path d="M 327 201v 14h 14v -7a 7 7, 0, 0, 0, -7 -7" transform="rotate(180,334,208)"/><path d="M 327 257v 14h 14v -7a 7 7, 0, 0, 0, -7 -7" transform="rotate(0,334,264)"/><rect x="327" y="271" width="14" height="14" transform="rotate(0,334,278)"/><rect x="327" y="285" width="14" height="14" transform="rotate(0,334,292)"/><rect x="327" y="299" width="14" height="14" transform="rotate(0,334,306)"/><rect x="327" y="327" width="14" height="14" transform="rotate(0,334,334)"/><rect x="327" y="341" width="14" height="14" transform="rotate(0,334,348)"/><rect x="327" y="369" width="14" height="14" transform="rotate(0,334,376)"/><rect x="327" y="383" width="14" height="14" transform="rotate(0,334,390)"/><path d="M 327 411v 14h 7a 7 7, 0, 0, 0, 0 -14" transform="rotate(-90,334,418)"/><rect x="327" y="425" width="14" height="14" transform="rotate(0,334,432)"/><rect x="327" y="439" width="14" height="14" transform="rotate(0,334,446)"/><rect x="327" y="453" width="14" height="14" transform="rotate(0,334,460)"/><rect x="327" y="467" width="14" height="14" transform="rotate(0,334,474)"/><circle cx="348" cy="40" r="7" transform="rotate(0,348,40)"/><path d="M 341 61v 14h 7a 7 7, 0, 0, 0, 0 -14" transform="rotate(-90,348,68)"/><path d="M 341 75v 14h 14v -7a 7 7, 0, 0, 0, -7 -7" transform="rotate(180,348,82)"/><path d="M 341 145v 14h 7a 7 7, 0, 0, 0, 0 -14" transform="rotate(0,348,152)"/><rect x="341" y="187" width="14" height="14" transform="rotate(0,348,194)"/><path d="M 341 201v 14h 14v -7a 7 7, 0, 0, 0, -7 -7" transform="rotate(90,348,208)"/><rect x="341" y="271" width="14" height="14" transform="rotate(0,348,278)"/><path d="M 341 299v 14h 7a 7 7, 0, 0, 0, 0 -14" transform="rotate(0,348,306)"/><rect x="341" y="327" width="14" height="14" transform="rotate(0,348,334)"/><rect x="341" y="341" width="14" height="14" transform="rotate(0,348,348)"/><rect x="341" y="355" width="14" height="14" transform="rotate(0,348,362)"/><rect x="341" y="369" width="14" height="14" transform="rotate(0,348,376)"/><rect x="341" y="383" width="14" height="14" transform="rotate(0,348,390)"/><path d="M 341 425v 14h 7a 7 7, 0, 0, 0, 0 -14" transform="rotate(0,348,432)"/><path d="M 341 467v 14h 7a 7 7, 0, 0, 0, 0 -14" transform="rotate(0,348,474)"/><circle cx="362" cy="26" r="7" transform="rotate(0,362,26)"/><circle cx="362" cy="54" r="7" transform="rotate(0,362,54)"/><path d="M 355 75v 14h 14v -7a 7 7, 0, 0, 0, -7 -7" transform="rotate(0,362,82)"/><rect x="355" y="89" width="14" height="14" transform="rotate(0,362,96)"/><path d="M 355 103v 14h 7a 7 7, 0, 0, 0, 0 -14" transform="rotate(90,362,110)"/><path d="M 355 159v 14h 14v -7a 7 7, 0, 0, 0, -7 -7" transform="rotate(-90,362,166)"/><rect x="355" y="173" width="14" height="14" transform="rotate(0,362,180)"/><path d="M 355 187v 14h 14v -7a 7 7, 0, 0, 0, -7 -7" transform="rotate(90,362,194)"/><path d="M 355 215v 14h 7a 7 7, 0, 0, 0, 0 -14" transform="rotate(-90,362,222)"/><path d="M 355 229v 14h 7a 7 7, 0, 0, 0, 0 -14" transform="rotate(90,362,236)"/><path d="M 355 257v 14h 14v -7a 7 7, 0, 0, 0, -7 -7" transform="rotate(-90,362,264)"/><rect x="355" y="271" width="14" height="14" transform="rotate(0,362,278)"/><path d="M 355 285v 14h 14v -7a 7 7, 0, 0, 0, -7 -7" transform="rotate(180,362,292)"/><path d="M 355 327v 14h 7a 7 7, 0, 0, 0, 0 -14" transform="rotate(0,362,334)"/><rect x="355" y="355" width="14" height="14" transform="rotate(0,362,362)"/><rect x="355" y="369" width="14" height="14" transform="rotate(0,362,376)"/><rect x="355" y="383" width="14" height="14" transform="rotate(0,362,390)"/><rect x="355" y="397" width="14" height="14" transform="rotate(0,362,404)"/><path d="M 355 411v 14h 14v -7a 7 7, 0, 0, 0, -7 -7" transform="rotate(180,362,418)"/><circle cx="362" cy="446" r="7" transform="rotate(0,362,446)"/><path d="M 369 131v 14h 7a 7 7, 0, 0, 0, 0 -14" transform="rotate(-90,376,138)"/><rect x="369" y="145" width="14" height="14" transform="rotate(0,376,152)"/><rect x="369" y="159" width="14" height="14" transform="rotate(0,376,166)"/><path d="M 369 173v 14h 14v -7a 7 7, 0, 0, 0, -7 -7" transform="rotate(90,376,180)"/><rect x="369" y="257" width="14" height="14" transform="rotate(0,376,264)"/><rect x="369" y="271" width="14" height="14" transform="rotate(0,376,278)"/><rect x="369" y="285" width="14" height="14" transform="rotate(0,376,292)"/><path d="M 369 313v 14h 7a 7 7, 0, 0, 0, 0 -14" transform="rotate(180,376,320)"/><rect x="369" y="355" width="14" height="14" transform="rotate(0,376,362)"/><rect x="369" y="411" width="14" height="14" transform="rotate(0,376,418)"/><path d="M 369 425v 14h 7a 7 7, 0, 0, 0, 0 -14" transform="rotate(90,376,432)"/><circle cx="376" cy="474" r="7" transform="rotate(0,376,474)"/><rect x="383" y="145" width="14" height="14" transform="rotate(0,390,152)"/><rect x="383" y="159" width="14" height="14" transform="rotate(0,390,166)"/><path d="M 383 187v 14h 7a 7 7, 0, 0, 0, 0 -14" transform="rotate(-90,390,194)"/><rect x="383" y="201" width="14" height="14" transform="rotate(0,390,208)"/><path d="M 383 215v 14h 7a 7 7, 0, 0, 0, 0 -14" transform="rotate(90,390,222)"/><path d="M 383 257v 14h 7a 7 7, 0, 0, 0, 0 -14" transform="rotate(0,390,264)"/><rect x="383" y="285" width="14" height="14" transform="rotate(0,390,292)"/><rect x="383" y="299" width="14" height="14" transform="rotate(0,390,306)"/><path d="M 383 313v 14h 14v -7a 7 7, 0, 0, 0, -7 -7" transform="rotate(90,390,320)"/><path d="M 383 341v 14h 14v -7a 7 7, 0, 0, 0, -7 -7" transform="rotate(-90,390,348)"/><rect x="383" y="355" width="14" height="14" transform="rotate(0,390,362)"/><circle cx="390" cy="390" r="7" transform="rotate(0,390,390)"/><rect x="383" y="411" width="14" height="14" transform="rotate(0,390,418)"/><path d="M 397 131v 14h 7a 7 7, 0, 0, 0, 0 -14" transform="rotate(-90,404,138)"/><rect x="397" y="145" width="14" height="14" transform="rotate(0,404,152)"/><path d="M 397 159v 14h 14v -7a 7 7, 0, 0, 0, -7 -7" transform="rotate(90,404,166)"/><path d="M 397 229v 14h 7a 7 7, 0, 0, 0, 0 -14" transform="rotate(-90,404,236)"/><path d="M 397 243v 14h 14v -7a 7 7, 0, 0, 0, -7 -7" transform="rotate(180,404,250)"/><rect x="397" y="285" width="14" height="14" transform="rotate(0,404,292)"/><path d="M 397 299v 14h 14v -7a 7 7, 0, 0, 0, -7 -7" transform="rotate(90,404,306)"/><rect x="397" y="341" width="14" height="14" transform="rotate(0,404,348)"/><rect x="397" y="355" width="14" height="14" transform="rotate(0,404,362)"/><rect x="397" y="411" width="14" height="14" transform="rotate(0,404,418)"/><rect x="397" y="425" width="14" height="14" transform="rotate(0,404,432)"/><rect x="397" y="439" width="14" height="14" transform="rotate(0,404,446)"/><path d="M 397 453v 14h 14v -7a 7 7, 0, 0, 0, -7 -7" transform="rotate(180,404,460)"/><rect x="411" y="145" width="14" height="14" transform="rotate(0,418,152)"/><path d="M 411 201v 14h 7a 7 7, 0, 0, 0, 0 -14" transform="rotate(180,418,208)"/><rect x="411" y="243" width="14" height="14" transform="rotate(0,418,250)"/><path d="M 411 257v 14h 7a 7 7, 0, 0, 0, 0 -14" transform="rotate(90,418,264)"/><rect x="411" y="285" width="14" height="14" transform="rotate(0,418,292)"/><path d="M 411 327v 14h 14v -7a 7 7, 0, 0, 0, -7 -7" transform="rotate(-90,418,334)"/><rect x="411" y="341" width="14" height="14" transform="rotate(0,418,348)"/><rect x="411" y="355" width="14" height="14" transform="rotate(0,418,362)"/><rect x="411" y="369" width="14" height="14" transform="rotate(0,418,376)"/><rect x="411" y="383" width="14" height="14" transform="rotate(0,418,390)"/><rect x="411" y="397" width="14" height="14" transform="rotate(0,418,404)"/><path d="M 411 411v 14h 14v -7a 7 7, 0, 0, 0, -7 -7" transform="rotate(90,418,418)"/><path d="M 411 439v 14h 14v -7a 7 7, 0, 0, 0, -7 -7" transform="rotate(0,418,446)"/><rect x="411" y="453" width="14" height="14" transform="rotate(0,418,460)"/><path d="M 411 467v 14h 14v -7a 7 7, 0, 0, 0, -7 -7" transform="rotate(180,418,474)"/><path d="M 425 131v 14h 14v -7a 7 7, 0, 0, 0, -7 -7" transform="rotate(-90,432,138)"/><rect x="425" y="145" width="14" height="14" transform="rotate(0,432,152)"/><rect x="425" y="159" width="14" height="14" transform="rotate(0,432,166)"/><path d="M 425 173v 14h 14v -7a 7 7, 0, 0, 0, -7 -7" transform="rotate(180,432,180)"/><rect x="425" y="201" width="14" height="14" transform="rotate(0,432,208)"/><path d="M 425 215v 14h 14v -7a 7 7, 0, 0, 0, -7 -7" transform="rotate(180,432,222)"/><rect x="425" y="243" width="14" height="14" transform="rotate(0,432,250)"/><path d="M 425 285v 14h 7a 7 7, 0, 0, 0, 0 -14" transform="rotate(0,432,292)"/><rect x="425" y="327" width="14" height="14" transform="rotate(0,432,334)"/><rect x="425" y="341" width="14" height="14" transform="rotate(0,432,348)"/><path d="M 425 355v 14h 14v -7a 7 7, 0, 0, 0, -7 -7" transform="rotate(90,432,362)"/><rect x="425" y="397" width="14" height="14" transform="rotate(0,432,404)"/><path d="M 425 453v 14h 14v -7a 7 7, 0, 0, 0, -7 -7" transform="rotate(0,432,460)"/><path d="M 425 467v 14h 14v -7a 7 7, 0, 0, 0, -7 -7" transform="rotate(90,432,474)"/><rect x="439" y="131" width="14" height="14" transform="rotate(0,446,138)"/><rect x="439" y="173" width="14" height="14" transform="rotate(0,446,180)"/><rect x="439" y="187" width="14" height="14" transform="rotate(0,446,194)"/><rect x="439" y="201" width="14" height="14" transform="rotate(0,446,208)"/><rect x="439" y="215" width="14" height="14" transform="rotate(0,446,222)"/><rect x="439" y="229" width="14" height="14" transform="rotate(0,446,236)"/><path d="M 439 243v 14h 14v -7a 7 7, 0, 0, 0, -7 -7" transform="rotate(90,446,250)"/><circle cx="446" cy="278" r="7" transform="rotate(0,446,278)"/><path d="M 439 299v 14h 14v -7a 7 7, 0, 0, 0, -7 -7" transform="rotate(-90,446,306)"/><rect x="439" y="313" width="14" height="14" transform="rotate(0,446,320)"/><rect x="439" y="327" width="14" height="14" transform="rotate(0,446,334)"/><rect x="439" y="341" width="14" height="14" transform="rotate(0,446,348)"/><path d="M 439 383v 14h 14v -7a 7 7, 0, 0, 0, -7 -7" transform="rotate(-90,446,390)"/><rect x="439" y="397" width="14" height="14" transform="rotate(0,446,404)"/><path d="M 439 425v 14h 7a 7 7, 0, 0, 0, 0 -14" transform="rotate(-90,446,432)"/><path d="M 439 439v 14h 7a 7 7, 0, 0, 0, 0 -14" transform="rotate(90,446,446)"/><path d="M 453 131v 14h 7a 7 7, 0, 0, 0, 0 -14" transform="rotate(0,460,138)"/><path d="M 453 173v 14h 14v -7a 7 7, 0, 0, 0, -7 -7" transform="rotate(0,460,180)"/><rect x="453" y="187" width="14" height="14" transform="rotate(0,460,194)"/><path d="M 453 215v 14h 14v -7a 7 7, 0, 0, 0, -7 -7" transform="rotate(0,460,222)"/><rect x="453" y="229" width="14" height="14" transform="rotate(0,460,236)"/><path d="M 453 257v 14h 7a 7 7, 0, 0, 0, 0 -14" transform="rotate(180,460,264)"/><path d="M 453 299v 14h 7a 7 7, 0, 0, 0, 0 -14" transform="rotate(0,460,306)"/><rect x="453" y="327" width="14" height="14" transform="rotate(0,460,334)"/><rect x="453" y="341" width="14" height="14" transform="rotate(0,460,348)"/><path d="M 453 369v 14h 14v -7a 7 7, 0, 0, 0, -7 -7" transform="rotate(-90,460,376)"/><rect x="453" y="383" width="14" height="14" transform="rotate(0,460,390)"/><rect x="453" y="397" width="14" height="14" transform="rotate(0,460,404)"/><path d="M 453 411v 14h 14v -7a 7 7, 0, 0, 0, -7 -7" transform="rotate(180,460,418)"/><circle cx="460" cy="474" r="7" transform="rotate(0,460,474)"/><circle cx="474" cy="152" r="7" transform="rotate(0,474,152)"/><path d="M 467 187v 14h 7a 7 7, 0, 0, 0, 0 -14" transform="rotate(0,474,194)"/><path d="M 467 229v 14h 7a 7 7, 0, 0, 0, 0 -14" transform="rotate(0,474,236)"/><path d="M 467 257v 14h 7a 7 7, 0, 0, 0, 0 -14" transform="rotate(0,474,264)"/><circle cx="474" cy="292" r="7" transform="rotate(0,474,292)"/><path d="M 467 313v 14h 7a 7 7, 0, 0, 0, 0 -14" transform="rotate(-90,474,320)"/><rect x="467" y="327" width="14" height="14" transform="rotate(0,474,334)"/><path d="M 467 341v 14h 14v -7a 7 7, 0, 0, 0, -7 -7" transform="rotate(90,474,348)"/><path d="M 467 369v 14h 14v -7a 7 7, 0, 0, 0, -7 -7" transform="rotate(0,474,376)"/><path d="M 467 383v 14h 14v -7a 7 7, 0, 0, 0, -7 -7" transform="rotate(90,474,390)"/><path d="M 467 411v 14h 14v -7a 7 7, 0, 0, 0, -7 -7" transform="rotate(0,474,418)"/><path d="M 467 425v 14h 7a 7 7, 0, 0, 0, 0 -14" transform="rotate(90,474,432)"/></clipPath><clipPath id="clip-path-corners-square-color-0-0"><path clip-rule="evenodd" d="M 19 54v 28a 35 35, 0, 0, 0, 35 35h 28a 35 35, 0, 0, 0, 35 -35v -28a 35 35, 0, 0, 0, -35 -35h -28a 35 35, 0, 0, 0, -35 35M 54 33h 28a 21 21, 0, 0, 1, 21 21v 28a 21 21, 0, 0, 1, -21 21h -28a 21 21, 0, 0, 1, -21 -21v -28a 21 21, 0, 0, 1, 21 -21" transform="rotate(0,68,68)"/></clipPath><clipPath id="clip-path-corners-dot-color-0-0"><rect x="47" y="47" width="42" height="42" transform="rotate(0,68,68)"/></clipPath><clipPath id="clip-path-corners-square-color-1-0"><path clip-rule="evenodd" d="M 383 54v 28a 35 35, 0, 0, 0, 35 35h 28a 35 35, 0, 0, 0, 35 -35v -28a 35 35, 0, 0, 0, -35 -35h -28a 35 35, 0, 0, 0, -35 35M 418 33h 28a 21 21, 0, 0, 1, 21 21v 28a 21 21, 0, 0, 1, -21 21h -28a 21 21, 0, 0, 1, -21 -21v -28a 21 21, 0, 0, 1, 21 -21" transform="rotate(90,432,68)"/></clipPath><clipPath id="clip-path-corners-dot-color-1-0"><rect x="411" y="47" width="42" height="42" transform="rotate(90,432,68)"/></clipPath><clipPath id="clip-path-corners-square-color-0-1"><path clip-rule="evenodd" d="M 19 418v 28a 35 35, 0, 0, 0, 35 35h 28a 35 35, 0, 0, 0, 35 -35v -28a 35 35, 0, 0, 0, -35 -35h -28a 35 35, 0, 0, 0, -35 35M 54 397h 28a 21 21, 0, 0, 1, 21 21v 28a 21 21, 0, 0, 1, -21 21h -28a 21 21, 0, 0, 1, -21 -21v -28a 21 21, 0, 0, 1, 21 -21" transform="rotate(-90,68,432)"/></clipPath><clipPath id="clip-path-corners-dot-color-0-1"><rect x="47" y="411" width="42" height="42" transform="rotate(-90,68,432)"/></clipPath></defs><rect x="0" y="0" height="500" width="500" clip-path="url('#clip-path-background-color')" fill="#fff"/><rect x="0" y="0" height="500" width="500" clip-path="url('#clip-path-dot-color')" fill="#18417E"/><rect x="19" y="19" height="98" width="98" clip-path="url('#clip-path-corners-square-color-0-0')" fill="#18417E"/><rect x="47" y="47" height="42" width="42" clip-path="url('#clip-path-corners-dot-color-0-0')" fill="#18417E"/><rect x="383" y="19" height="98" width="98" clip-path="url('#clip-path-corners-square-color-1-0')" fill="#18417E"/><rect x="411" y="47" height="42" width="42" clip-path="url('#clip-path-corners-dot-color-1-0')" fill="#18417E"/><rect x="19" y="383" height="98" width="98" clip-path="url('#clip-path-corners-square-color-0-1')" fill="#18417E"/><rect x="47" y="411" height="42" width="42" clip-path="url('#clip-path-corners-dot-color-0-1')" fill="#18417E"/></svg>