<svg xmlns="http://www.w3.org/2000/svg" xmlns:xlink="http://www.w3.org/1999/xlink" xmlns:inkscape="http://www.inkscape.org/namespaces/inkscape" version="1.1" width="307.49079" height="325.1835" viewBox="0 0 307.49079 325.1835">
<defs>
<clipPath id="clip_0">
<path transform="matrix(1,0,0,-1,0,325.1835)" d="M20.559376 23.871876H299.5594V301.0719H20.559376Z"/>
</clipPath>
<clipPath id="clip_1">
<path transform="matrix(1,0,0,-1,0,325.1835)" d="M20.559376 23.871876H299.5594V301.0719H20.559376Z"/>
</clipPath>
<clipPath id="clip_2">
<path transform="matrix(1,0,0,-1,0,325.1835)" d="M20.559376 23.871876H299.5594V301.0719H20.559376Z"/>
</clipPath>
<clipPath id="clip_3">
<path transform="matrix(1,0,0,-1,0,325.1835)" d="M20.559376 23.871876H299.5594V301.0719H20.559376Z"/>
</clipPath>
<clipPath id="clip_4">
<path transform="matrix(1,0,0,-1,0,325.1835)" d="M20.559376 23.871876H299.5594V301.0719H20.559376Z"/>
</clipPath>
<clipPath id="clip_5">
<path transform="matrix(1,0,0,-1,0,325.1835)" d="M20.559376 23.871876H299.5594V301.0719H20.559376Z"/>
</clipPath>
<clipPath id="clip_6">
<path transform="matrix(1,0,0,-1,0,325.1835)" d="M20.559376 23.871876H299.5594V301.0719H20.559376Z"/>
</clipPath>
<clipPath id="clip_7">
<path transform="matrix(1,0,0,-1,0,325.1835)" d="M20.559376 23.871876H299.5594V301.0719H20.559376Z"/>
</clipPath>
<clipPath id="clip_8">
<path transform="matrix(1,0,0,-1,0,325.1835)" d="M20.559376 23.871876H299.5594V301.0719H20.559376Z"/>
</clipPath>
<clipPath id="clip_9">
<path transform="matrix(1,0,0,-1,0,325.1835)" d="M20.559376 23.871876H299.5594V301.0719H20.559376Z"/>
</clipPath>
<clipPath id="clip_10">
<path transform="matrix(1,0,0,-1,0,325.1835)" d="M20.559376 23.871876H299.5594V301.0719H20.559376Z"/>
</clipPath>
<clipPath id="clip_11">
<path transform="matrix(1,0,0,-1,0,325.1835)" d="M20.559376 23.871876H299.5594V301.0719H20.559376Z"/>
</clipPath>
<clipPath id="clip_12">
<path transform="matrix(1,0,0,-1,0,325.1835)" d="M20.559376 23.871876H299.5594V301.0719H20.559376Z"/>
</clipPath>
<clipPath id="clip_13">
<path transform="matrix(1,0,0,-1,0,325.1835)" d="M20.559376 23.871876H299.5594V301.0719H20.559376Z"/>
</clipPath>
<clipPath id="clip_14">
<path transform="matrix(1,0,0,-1,0,325.1835)" d="M20.559376 23.871876H299.5594V301.0719H20.559376Z"/>
</clipPath>
<clipPath id="clip_15">
<path transform="matrix(1,0,0,-1,0,325.1835)" d="M20.559376 23.871876H299.5594V301.0719H20.559376Z"/>
</clipPath>
<clipPath id="clip_16">
<path transform="matrix(1,0,0,-1,0,325.1835)" d="M20.559376 23.871876H299.5594V301.0719H20.559376Z"/>
</clipPath>
<clipPath id="clip_17">
<path transform="matrix(1,0,0,-1,0,325.1835)" d="M20.559376 23.871876H299.5594V301.0719H20.559376Z"/>
</clipPath>
<clipPath id="clip_18">
<path transform="matrix(1,0,0,-1,0,325.1835)" d="M20.559376 23.871876H299.5594V301.0719H20.559376Z"/>
</clipPath>
<clipPath id="clip_19">
<path transform="matrix(1,0,0,-1,0,325.1835)" d="M20.559376 23.871876H299.5594V301.0719H20.559376Z"/>
</clipPath>
<clipPath id="clip_20">
<path transform="matrix(1,0,0,-1,0,325.1835)" d="M20.559376 23.871876H299.5594V301.0719H20.559376Z"/>
</clipPath>
<clipPath id="clip_21">
<path transform="matrix(1,0,0,-1,0,325.1835)" d="M20.559376 23.871876H299.5594V301.0719H20.559376Z"/>
</clipPath>
<clipPath id="clip_22">
<path transform="matrix(1,0,0,-1,0,325.1835)" d="M20.559376 23.871876H299.5594V301.0719H20.559376Z"/>
</clipPath>
<clipPath id="clip_23">
<path transform="matrix(1,0,0,-1,0,325.1835)" d="M20.559376 23.871876H299.5594V301.0719H20.559376Z"/>
</clipPath>
<clipPath id="clip_24">
<path transform="matrix(1,0,0,-1,0,325.1835)" d="M20.559376 23.871876H299.5594V301.0719H20.559376Z"/>
</clipPath>
<clipPath id="clip_25">
<path transform="matrix(1,0,0,-1,0,325.1835)" d="M20.559376 23.871876H299.5594V301.0719H20.559376Z"/>
</clipPath>
<clipPath id="clip_26">
<path transform="matrix(1,0,0,-1,0,325.1835)" d="M20.559376 23.871876H299.5594V301.0719H20.559376Z"/>
</clipPath>
<clipPath id="clip_27">
<path transform="matrix(1,0,0,-1,0,325.1835)" d="M20.559376 23.871876H299.5594V301.0719H20.559376Z"/>
</clipPath>
<clipPath id="clip_28">
<path transform="matrix(1,0,0,-1,0,325.1835)" d="M20.559376 23.871876H299.5594V301.0719H20.559376Z"/>
</clipPath>
<clipPath id="clip_29">
<path transform="matrix(1,0,0,-1,0,325.1835)" d="M20.559376 23.871876H299.5594V301.0719H20.559376Z"/>
</clipPath>
<clipPath id="clip_30">
<path transform="matrix(1,0,0,-1,0,325.1835)" d="M20.559376 23.871876H299.5594V301.0719H20.559376Z"/>
</clipPath>
<clipPath id="clip_31">
<path transform="matrix(1,0,0,-1,0,325.1835)" d="M20.559376 23.871876H299.5594V301.0719H20.559376Z"/>
</clipPath>
<clipPath id="clip_32">
<path transform="matrix(1,0,0,-1,0,325.1835)" d="M20.559376 23.871876H299.5594V301.0719H20.559376Z"/>
</clipPath>
</defs>
<path transform="matrix(1,0,0,-1,0,325.1835)" d="M0 0H307.49079V325.1835H0Z" fill="#ffffff"/>
<path transform="matrix(1,0,0,-1,0,325.1835)" d="M20.559376 23.871876H299.5594V301.07188H20.559376Z" fill="#ffffff"/>
<g clip-path="url(#clip_0)">
<path transform="matrix(1,0,0,-1,0,325.1835)" stroke-width="3" stroke-linecap="butt" stroke-miterlimit="10" stroke-linejoin="miter" fill="none" stroke="#006400" d="M33.24119 36.471876H56.299047V288.47187H33.24119V36.471876Z"/>
</g>
<g clip-path="url(#clip_1)">
<path transform="matrix(1,0,0,-1,0,325.1835)" stroke-width="3" stroke-linecap="butt" stroke-miterlimit="10" stroke-linejoin="miter" fill="none" stroke="#006400" d="M90.88582 36.471876H113.94367V229.86722H90.88582V36.471876Z"/>
</g>
<g clip-path="url(#clip_2)">
<path transform="matrix(1,0,0,-1,0,325.1835)" stroke-width="3" stroke-linecap="butt" stroke-miterlimit="10" stroke-linejoin="miter" fill="none" stroke="#006400" d="M148.53046 36.471876H171.5883V171.26258H148.53046V36.471876Z"/>
</g>
<g clip-path="url(#clip_3)">
<path transform="matrix(1,0,0,-1,0,325.1835)" stroke-width="3" stroke-linecap="butt" stroke-miterlimit="10" stroke-linejoin="miter" fill="none" stroke="#006400" d="M206.17508 36.471876H229.23293V112.65792H206.17508V36.471876Z"/>
</g>
<g clip-path="url(#clip_4)">
<path transform="matrix(1,0,0,-1,0,325.1835)" stroke-width="3" stroke-linecap="butt" stroke-miterlimit="10" stroke-linejoin="miter" fill="none" stroke="#006400" d="M263.8197 36.471876H286.87757V54.05327H263.8197V36.471876Z"/>
</g>
<g clip-path="url(#clip_5)">
<path transform="matrix(1,0,0,-1,0,325.1835)" stroke-width=".5" stroke-linecap="butt" stroke-dasharray="1.85,.8" stroke-linejoin="round" fill="none" stroke="#b0b0b0" d="M44.77012 23.871876V301.07188"/>
</g>
<path transform="matrix(1,0,0,-1,0,325.1835)" d="M44.77012 23.871876V20.371876"/>
<path transform="matrix(1,0,0,-1,0,325.1835)" stroke-width=".8" stroke-linecap="butt" stroke-linejoin="round" fill="none" stroke="#000000" d="M44.77012 23.871876V20.371876"/>
<text xml:space="preserve" transform="matrix(1 0 -0 1 41.59043 315.90538)" font-size="10" font-family="DejaVuSerif"><tspan y="0" x="0">0</tspan></text>
<g clip-path="url(#clip_6)">
<path transform="matrix(1,0,0,-1,0,325.1835)" stroke-width=".5" stroke-linecap="butt" stroke-dasharray="1.85,.8" stroke-linejoin="round" fill="none" stroke="#b0b0b0" d="M102.41475 23.871876V301.07188"/>
</g>
<path transform="matrix(1,0,0,-1,0,325.1835)" d="M102.41475 23.871876V20.371876"/>
<path transform="matrix(1,0,0,-1,0,325.1835)" stroke-width=".8" stroke-linecap="butt" stroke-linejoin="round" fill="none" stroke="#000000" d="M102.41475 23.871876V20.371876"/>
<text xml:space="preserve" transform="matrix(1 0 -0 1 99.23506 315.90538)" font-size="10" font-family="DejaVuSerif"><tspan y="0" x="0">1</tspan></text>
<g clip-path="url(#clip_7)">
<path transform="matrix(1,0,0,-1,0,325.1835)" stroke-width=".5" stroke-linecap="butt" stroke-dasharray="1.85,.8" stroke-linejoin="round" fill="none" stroke="#b0b0b0" d="M160.05937 23.871876V301.07188"/>
</g>
<path transform="matrix(1,0,0,-1,0,325.1835)" d="M160.05937 23.871876V20.371876"/>
<path transform="matrix(1,0,0,-1,0,325.1835)" stroke-width=".8" stroke-linecap="butt" stroke-linejoin="round" fill="none" stroke="#000000" d="M160.05937 23.871876V20.371876"/>
<text xml:space="preserve" transform="matrix(1 0 -0 1 156.87969 315.90538)" font-size="10" font-family="DejaVuSerif"><tspan y="0" x="0">2</tspan></text>
<g clip-path="url(#clip_8)">
<path transform="matrix(1,0,0,-1,0,325.1835)" stroke-width=".5" stroke-linecap="butt" stroke-dasharray="1.85,.8" stroke-linejoin="round" fill="none" stroke="#b0b0b0" d="M217.70401 23.871876V301.07188"/>
</g>
<path transform="matrix(1,0,0,-1,0,325.1835)" d="M217.70401 23.871876V20.371876"/>
<path transform="matrix(1,0,0,-1,0,325.1835)" stroke-width=".8" stroke-linecap="butt" stroke-linejoin="round" fill="none" stroke="#000000" d="M217.70401 23.871876V20.371876"/>
<text xml:space="preserve" transform="matrix(1 0 -0 1 214.52433 315.90538)" font-size="10" font-family="DejaVuSerif"><tspan y="0" x="0">3</tspan></text>
<g clip-path="url(#clip_9)">
<path transform="matrix(1,0,0,-1,0,325.1835)" stroke-width=".5" stroke-linecap="butt" stroke-dasharray="1.85,.8" stroke-linejoin="round" fill="none" stroke="#b0b0b0" d="M275.34864 23.871876V301.07188"/>
</g>
<path transform="matrix(1,0,0,-1,0,325.1835)" d="M275.34864 23.871876V20.371876"/>
<path transform="matrix(1,0,0,-1,0,325.1835)" stroke-width=".8" stroke-linecap="butt" stroke-linejoin="round" fill="none" stroke="#000000" d="M275.34864 23.871876V20.371876"/>
<text xml:space="preserve" transform="matrix(1 0 -0 1 272.16896 315.90538)" font-size="10" font-family="DejaVuSerif"><tspan y="0" x="0">4</tspan></text>
<g clip-path="url(#clip_10)">
<path transform="matrix(1,0,0,-1,0,325.1835)" stroke-width=".5" stroke-linecap="butt" stroke-dasharray="1.85,.8" stroke-linejoin="round" fill="none" stroke="#b0b0b0" d="M20.559376 45.262575H299.5594"/>
</g>
<path transform="matrix(1,0,0,-1,0,325.1835)" d="M20.559376 45.262575H17.059376"/>
<path transform="matrix(1,0,0,-1,0,325.1835)" stroke-width=".8" stroke-linecap="butt" stroke-linejoin="round" fill="none" stroke="#000000" d="M20.559376 45.262575H17.059376"/>
<text xml:space="preserve" transform="matrix(1 0 -0 1 7.2 283.7178)" font-size="10" font-family="DejaVuSerif"><tspan y="0" x="0">0</tspan></text>
<g clip-path="url(#clip_11)">
<path transform="matrix(1,0,0,-1,0,325.1835)" stroke-width=".5" stroke-linecap="butt" stroke-dasharray="1.85,.8" stroke-linejoin="round" fill="none" stroke="#b0b0b0" d="M20.559376 103.867229H299.5594"/>
</g>
<path transform="matrix(1,0,0,-1,0,325.1835)" d="M20.559376 103.867229H17.059376"/>
<path transform="matrix(1,0,0,-1,0,325.1835)" stroke-width=".8" stroke-linecap="butt" stroke-linejoin="round" fill="none" stroke="#000000" d="M20.559376 103.867229H17.059376"/>
<text xml:space="preserve" transform="matrix(1 0 -0 1 7.2 225.11316)" font-size="10" font-family="DejaVuSerif"><tspan y="0" x="0">1</tspan></text>
<g clip-path="url(#clip_12)">
<path transform="matrix(1,0,0,-1,0,325.1835)" stroke-width=".5" stroke-linecap="butt" stroke-dasharray="1.85,.8" stroke-linejoin="round" fill="none" stroke="#b0b0b0" d="M20.559376 162.47188H299.5594"/>
</g>
<path transform="matrix(1,0,0,-1,0,325.1835)" d="M20.559376 162.47188H17.059376"/>
<path transform="matrix(1,0,0,-1,0,325.1835)" stroke-width=".8" stroke-linecap="butt" stroke-linejoin="round" fill="none" stroke="#000000" d="M20.559376 162.47188H17.059376"/>
<text xml:space="preserve" transform="matrix(1 0 -0 1 7.2 166.5085)" font-size="10" font-family="DejaVuSerif"><tspan y="0" x="0">2</tspan></text>
<g clip-path="url(#clip_13)">
<path transform="matrix(1,0,0,-1,0,325.1835)" stroke-width=".5" stroke-linecap="butt" stroke-dasharray="1.85,.8" stroke-linejoin="round" fill="none" stroke="#b0b0b0" d="M20.559376 221.07653H299.5594"/>
</g>
<path transform="matrix(1,0,0,-1,0,325.1835)" d="M20.559376 221.07653H17.059376"/>
<path transform="matrix(1,0,0,-1,0,325.1835)" stroke-width=".8" stroke-linecap="butt" stroke-linejoin="round" fill="none" stroke="#000000" d="M20.559376 221.07653H17.059376"/>
<text xml:space="preserve" transform="matrix(1 0 -0 1 7.2 107.903858)" font-size="10" font-family="DejaVuSerif"><tspan y="0" x="0">3</tspan></text>
<g clip-path="url(#clip_14)">
<path transform="matrix(1,0,0,-1,0,325.1835)" stroke-width=".5" stroke-linecap="butt" stroke-dasharray="1.85,.8" stroke-linejoin="round" fill="none" stroke="#b0b0b0" d="M20.559376 279.68119H299.5594"/>
</g>
<path transform="matrix(1,0,0,-1,0,325.1835)" d="M20.559376 279.68119H17.059376"/>
<path transform="matrix(1,0,0,-1,0,325.1835)" stroke-width=".8" stroke-linecap="butt" stroke-linejoin="round" fill="none" stroke="#000000" d="M20.559376 279.68119H17.059376"/>
<text xml:space="preserve" transform="matrix(1 0 -0 1 7.2 49.299196)" font-size="10" font-family="DejaVuSerif"><tspan y="0" x="0">4</tspan></text>
<g clip-path="url(#clip_15)">
<path transform="matrix(1,0,0,-1,0,325.1835)" stroke-width="1" stroke-linecap="square" stroke-linejoin="round" fill="none" stroke="#000000" d="M20.559376 45.262575H299.5594"/>
</g>
<g clip-path="url(#clip_16)">
<path transform="matrix(1,0,0,-1,0,325.1835)" stroke-width="1" stroke-linecap="square" stroke-linejoin="round" fill="none" stroke="#000000" d="M44.77012 23.871876V301.07188"/>
</g>
<g clip-path="url(#clip_17)">
<path transform="matrix(1,0,0,-1,0,325.1835)" stroke-width="1.5" stroke-linecap="square" stroke-linejoin="round" fill="none" stroke="#0000ff" d="M44.77012 279.68119 47.099195 277.31333 49.428274 274.94544 51.757349 272.57759 54.086423 270.20973 56.415498 267.84187 58.744577 265.474 61.07365 263.1061 63.402727 260.73826 65.731807 258.3704 68.060878 256.00254 70.38995 253.63466 72.71903 251.2668 75.0481 248.89894 77.37718 246.53107 79.70626 244.16321 82.03533 241.79535 84.36441 239.42748 86.69348 237.05962 89.02256 234.69174 91.35164 232.32389 93.68071 229.95603 96.00979 227.58815 98.33887 225.22029 100.66794 222.85243 102.99702 220.48456 105.326099 218.1167 107.65517 215.74883 109.984249 213.38097 112.31332 211.0131 114.642398 208.64524 116.97147 206.27738 119.300548 203.9095 121.62962 201.54164 123.9587 199.17378 126.28777 196.80591 128.61685 194.43805 130.94593 192.07019 133.27501 189.70232 135.60408 187.33446 137.93315 184.96659 140.26224 182.59873 142.59131 180.23087 144.92038 177.86299 147.24945 175.49514 149.57854 173.12728 151.90761 170.7594 154.23668 168.39154 156.56577 166.02367 158.89484 163.6558 161.2239 161.28795 163.553 158.92008 165.88207 156.55222 168.21114 154.18434 170.54022 151.81649 172.8693 149.44863 175.19837 147.08075 177.52745 144.71289 179.85652 142.34503 182.1856 139.97716 184.51468 137.6093 186.84375 135.24143 189.17282 132.87357 191.50189 130.5057 193.83098 128.13784 196.16005 125.76997 198.48912 123.40211 200.8182 121.03424 203.14728 118.666378 205.47635 116.298519 207.80544 113.93065 210.1345 111.56278 212.46358 109.194919 214.79267 106.82706 217.12174 104.45919 219.4508 102.091327 221.77989 99.72346 224.10897 97.3556 226.43804 94.98773 228.76712 92.619869 231.09619 90.252 233.42527 87.88414 235.75434 85.51627 238.08342 83.14841 240.41249 80.78054 242.74156 78.41268 245.07065 76.044818 247.39972 73.67695 249.72879 71.30908 252.05788 68.94122 254.38695 66.57336 256.71604 64.20549 259.0451 61.837629 261.37419 59.46976 263.70326 57.101896 266.03233 54.73403 268.3614 52.366167 270.6905 49.998304 273.01957 47.630437 275.34864 45.262575"/>
</g>
<g clip-path="url(#clip_18)">
<path transform="matrix(1,0,0,-1,0,325.1835)" d="M44.77012 42.762575C45.43313 42.762575 46.06907 43.02599 46.537889 43.494806 47.006704 43.963624 47.27012 44.599565 47.27012 45.262575 47.27012 45.92558 47.006704 46.561525 46.537889 47.03034 46.06907 47.499158 45.43313 47.762575 44.77012 47.762575 44.107114 47.762575 43.47117 47.499158 43.002355 47.03034 42.533536 46.561525 42.27012 45.92558 42.27012 45.262575 42.27012 44.599565 42.533536 43.963624 43.002355 43.494806 43.47117 43.02599 44.107114 42.762575 44.77012 42.762575Z" fill="#ff0000"/>
<path transform="matrix(1,0,0,-1,0,325.1835)" stroke-width="1" stroke-linecap="butt" stroke-linejoin="round" fill="none" stroke="#ff0000" d="M44.77012 42.762575C45.43313 42.762575 46.06907 43.02599 46.537889 43.494806 47.006704 43.963624 47.27012 44.599565 47.27012 45.262575 47.27012 45.92558 47.006704 46.561525 46.537889 47.03034 46.06907 47.499158 45.43313 47.762575 44.77012 47.762575 44.107114 47.762575 43.47117 47.499158 43.002355 47.03034 42.533536 46.561525 42.27012 45.92558 42.27012 45.262575 42.27012 44.599565 42.533536 43.963624 43.002355 43.494806 43.47117 43.02599 44.107114 42.762575 44.77012 42.762575Z"/>
</g>
<g clip-path="url(#clip_19)">
<path transform="matrix(1,0,0,-1,0,325.1835)" d="M44.77012 101.367229C45.43313 101.367229 46.06907 101.63064 46.537889 102.09946 47.006704 102.568279 47.27012 103.204219 47.27012 103.867229 47.27012 104.530239 47.006704 105.166179 46.537889 105.634998 46.06907 106.103809 45.43313 106.367229 44.77012 106.367229 44.107114 106.367229 43.47117 106.103809 43.002355 105.634998 42.533536 105.166179 42.27012 104.530239 42.27012 103.867229 42.27012 103.204219 42.533536 102.568279 43.002355 102.09946 43.47117 101.63064 44.107114 101.367229 44.77012 101.367229Z" fill="#ff0000"/>
<path transform="matrix(1,0,0,-1,0,325.1835)" stroke-width="1" stroke-linecap="butt" stroke-linejoin="round" fill="none" stroke="#ff0000" d="M44.77012 101.367229C45.43313 101.367229 46.06907 101.63064 46.537889 102.09946 47.006704 102.568279 47.27012 103.204219 47.27012 103.867229 47.27012 104.530239 47.006704 105.166179 46.537889 105.634998 46.06907 106.103809 45.43313 106.367229 44.77012 106.367229 44.107114 106.367229 43.47117 106.103809 43.002355 105.634998 42.533536 105.166179 42.27012 104.530239 42.27012 103.867229 42.27012 103.204219 42.533536 102.568279 43.002355 102.09946 43.47117 101.63064 44.107114 101.367229 44.77012 101.367229Z"/>
</g>
<g clip-path="url(#clip_20)">
<path transform="matrix(1,0,0,-1,0,325.1835)" d="M44.77012 159.97188C45.43313 159.97188 46.06907 160.23529 46.537889 160.7041 47.006704 161.17293 47.27012 161.80887 47.27012 162.47188 47.27012 163.13489 47.006704 163.77083 46.537889 164.23964 46.06907 164.70847 45.43313 164.97188 44.77012 164.97188 44.107114 164.97188 43.47117 164.70847 43.002355 164.23964 42.533536 163.77083 42.27012 163.13489 42.27012 162.47188 42.27012 161.80887 42.533536 161.17293 43.002355 160.7041 43.47117 160.23529 44.107114 159.97188 44.77012 159.97188Z" fill="#ff0000"/>
<path transform="matrix(1,0,0,-1,0,325.1835)" stroke-width="1" stroke-linecap="butt" stroke-linejoin="round" fill="none" stroke="#ff0000" d="M44.77012 159.97188C45.43313 159.97188 46.06907 160.23529 46.537889 160.7041 47.006704 161.17293 47.27012 161.80887 47.27012 162.47188 47.27012 163.13489 47.006704 163.77083 46.537889 164.23964 46.06907 164.70847 45.43313 164.97188 44.77012 164.97188 44.107114 164.97188 43.47117 164.70847 43.002355 164.23964 42.533536 163.77083 42.27012 163.13489 42.27012 162.47188 42.27012 161.80887 42.533536 161.17293 43.002355 160.7041 43.47117 160.23529 44.107114 159.97188 44.77012 159.97188Z"/>
</g>
<g clip-path="url(#clip_21)">
<path transform="matrix(1,0,0,-1,0,325.1835)" d="M44.77012 218.57653C45.43313 218.57653 46.06907 218.83994 46.537889 219.30876 47.006704 219.77758 47.27012 220.41352 47.27012 221.07653 47.27012 221.73954 47.006704 222.37548 46.537889 222.8443 46.06907 223.31311 45.43313 223.57653 44.77012 223.57653 44.107114 223.57653 43.47117 223.31311 43.002355 222.8443 42.533536 222.37548 42.27012 221.73954 42.27012 221.07653 42.27012 220.41352 42.533536 219.77758 43.002355 219.30876 43.47117 218.83994 44.107114 218.57653 44.77012 218.57653Z" fill="#ff0000"/>
<path transform="matrix(1,0,0,-1,0,325.1835)" stroke-width="1" stroke-linecap="butt" stroke-linejoin="round" fill="none" stroke="#ff0000" d="M44.77012 218.57653C45.43313 218.57653 46.06907 218.83994 46.537889 219.30876 47.006704 219.77758 47.27012 220.41352 47.27012 221.07653 47.27012 221.73954 47.006704 222.37548 46.537889 222.8443 46.06907 223.31311 45.43313 223.57653 44.77012 223.57653 44.107114 223.57653 43.47117 223.31311 43.002355 222.8443 42.533536 222.37548 42.27012 221.73954 42.27012 221.07653 42.27012 220.41352 42.533536 219.77758 43.002355 219.30876 43.47117 218.83994 44.107114 218.57653 44.77012 218.57653Z"/>
</g>
<g clip-path="url(#clip_22)">
<path transform="matrix(1,0,0,-1,0,325.1835)" d="M44.77012 277.18119C45.43313 277.18119 46.06907 277.44459 46.537889 277.91343 47.006704 278.38224 47.27012 279.01817 47.27012 279.68119 47.27012 280.34419 47.006704 280.98014 46.537889 281.44895 46.06907 281.91777 45.43313 282.18119 44.77012 282.18119 44.107114 282.18119 43.47117 281.91777 43.002355 281.44895 42.533536 280.98014 42.27012 280.34419 42.27012 279.68119 42.27012 279.01817 42.533536 278.38224 43.002355 277.91343 43.47117 277.44459 44.107114 277.18119 44.77012 277.18119Z" fill="#ff0000"/>
<path transform="matrix(1,0,0,-1,0,325.1835)" stroke-width="1" stroke-linecap="butt" stroke-linejoin="round" fill="none" stroke="#ff0000" d="M44.77012 277.18119C45.43313 277.18119 46.06907 277.44459 46.537889 277.91343 47.006704 278.38224 47.27012 279.01817 47.27012 279.68119 47.27012 280.34419 47.006704 280.98014 46.537889 281.44895 46.06907 281.91777 45.43313 282.18119 44.77012 282.18119 44.107114 282.18119 43.47117 281.91777 43.002355 281.44895 42.533536 280.98014 42.27012 280.34419 42.27012 279.68119 42.27012 279.01817 42.533536 278.38224 43.002355 277.91343 43.47117 277.44459 44.107114 277.18119 44.77012 277.18119Z"/>
</g>
<g clip-path="url(#clip_23)">
<path transform="matrix(1,0,0,-1,0,325.1835)" d="M102.41475 42.762575C103.07776 42.762575 103.7137 43.02599 104.18251 43.494806 104.65133 43.963624 104.91475 44.599565 104.91475 45.262575 104.91475 45.92558 104.65133 46.561525 104.18251 47.03034 103.7137 47.499158 103.07776 47.762575 102.41475 47.762575 101.75174 47.762575 101.1158 47.499158 100.64698 47.03034 100.17816 46.561525 99.91475 45.92558 99.91475 45.262575 99.91475 44.599565 100.17816 43.963624 100.64698 43.494806 101.1158 43.02599 101.75174 42.762575 102.41475 42.762575Z" fill="#ff0000"/>
<path transform="matrix(1,0,0,-1,0,325.1835)" stroke-width="1" stroke-linecap="butt" stroke-linejoin="round" fill="none" stroke="#ff0000" d="M102.41475 42.762575C103.07776 42.762575 103.7137 43.02599 104.18251 43.494806 104.65133 43.963624 104.91475 44.599565 104.91475 45.262575 104.91475 45.92558 104.65133 46.561525 104.18251 47.03034 103.7137 47.499158 103.07776 47.762575 102.41475 47.762575 101.75174 47.762575 101.1158 47.499158 100.64698 47.03034 100.17816 46.561525 99.91475 45.92558 99.91475 45.262575 99.91475 44.599565 100.17816 43.963624 100.64698 43.494806 101.1158 43.02599 101.75174 42.762575 102.41475 42.762575Z"/>
</g>
<g clip-path="url(#clip_24)">
<path transform="matrix(1,0,0,-1,0,325.1835)" d="M102.41475 101.367229C103.07776 101.367229 103.7137 101.63064 104.18251 102.09946 104.65133 102.568279 104.91475 103.204219 104.91475 103.867229 104.91475 104.530239 104.65133 105.166179 104.18251 105.634998 103.7137 106.103809 103.07776 106.367229 102.41475 106.367229 101.75174 106.367229 101.1158 106.103809 100.64698 105.634998 100.17816 105.166179 99.91475 104.530239 99.91475 103.867229 99.91475 103.204219 100.17816 102.568279 100.64698 102.09946 101.1158 101.63064 101.75174 101.367229 102.41475 101.367229Z" fill="#ff0000"/>
<path transform="matrix(1,0,0,-1,0,325.1835)" stroke-width="1" stroke-linecap="butt" stroke-linejoin="round" fill="none" stroke="#ff0000" d="M102.41475 101.367229C103.07776 101.367229 103.7137 101.63064 104.18251 102.09946 104.65133 102.568279 104.91475 103.204219 104.91475 103.867229 104.91475 104.530239 104.65133 105.166179 104.18251 105.634998 103.7137 106.103809 103.07776 106.367229 102.41475 106.367229 101.75174 106.367229 101.1158 106.103809 100.64698 105.634998 100.17816 105.166179 99.91475 104.530239 99.91475 103.867229 99.91475 103.204219 100.17816 102.568279 100.64698 102.09946 101.1158 101.63064 101.75174 101.367229 102.41475 101.367229Z"/>
</g>
<g clip-path="url(#clip_25)">
<path transform="matrix(1,0,0,-1,0,325.1835)" d="M102.41475 159.97188C103.07776 159.97188 103.7137 160.23529 104.18251 160.7041 104.65133 161.17293 104.91475 161.80887 104.91475 162.47188 104.91475 163.13489 104.65133 163.77083 104.18251 164.23964 103.7137 164.70847 103.07776 164.97188 102.41475 164.97188 101.75174 164.97188 101.1158 164.70847 100.64698 164.23964 100.17816 163.77083 99.91475 163.13489 99.91475 162.47188 99.91475 161.80887 100.17816 161.17293 100.64698 160.7041 101.1158 160.23529 101.75174 159.97188 102.41475 159.97188Z" fill="#ff0000"/>
<path transform="matrix(1,0,0,-1,0,325.1835)" stroke-width="1" stroke-linecap="butt" stroke-linejoin="round" fill="none" stroke="#ff0000" d="M102.41475 159.97188C103.07776 159.97188 103.7137 160.23529 104.18251 160.7041 104.65133 161.17293 104.91475 161.80887 104.91475 162.47188 104.91475 163.13489 104.65133 163.77083 104.18251 164.23964 103.7137 164.70847 103.07776 164.97188 102.41475 164.97188 101.75174 164.97188 101.1158 164.70847 100.64698 164.23964 100.17816 163.77083 99.91475 163.13489 99.91475 162.47188 99.91475 161.80887 100.17816 161.17293 100.64698 160.7041 101.1158 160.23529 101.75174 159.97188 102.41475 159.97188Z"/>
</g>
<g clip-path="url(#clip_26)">
<path transform="matrix(1,0,0,-1,0,325.1835)" d="M102.41475 218.57653C103.07776 218.57653 103.7137 218.83994 104.18251 219.30876 104.65133 219.77758 104.91475 220.41352 104.91475 221.07653 104.91475 221.73954 104.65133 222.37548 104.18251 222.8443 103.7137 223.31311 103.07776 223.57653 102.41475 223.57653 101.75174 223.57653 101.1158 223.31311 100.64698 222.8443 100.17816 222.37548 99.91475 221.73954 99.91475 221.07653 99.91475 220.41352 100.17816 219.77758 100.64698 219.30876 101.1158 218.83994 101.75174 218.57653 102.41475 218.57653Z" fill="#ff0000"/>
<path transform="matrix(1,0,0,-1,0,325.1835)" stroke-width="1" stroke-linecap="butt" stroke-linejoin="round" fill="none" stroke="#ff0000" d="M102.41475 218.57653C103.07776 218.57653 103.7137 218.83994 104.18251 219.30876 104.65133 219.77758 104.91475 220.41352 104.91475 221.07653 104.91475 221.73954 104.65133 222.37548 104.18251 222.8443 103.7137 223.31311 103.07776 223.57653 102.41475 223.57653 101.75174 223.57653 101.1158 223.31311 100.64698 222.8443 100.17816 222.37548 99.91475 221.73954 99.91475 221.07653 99.91475 220.41352 100.17816 219.77758 100.64698 219.30876 101.1158 218.83994 101.75174 218.57653 102.41475 218.57653Z"/>
</g>
<g clip-path="url(#clip_27)">
<path transform="matrix(1,0,0,-1,0,325.1835)" d="M160.05937 42.762575C160.72238 42.762575 161.35832 43.02599 161.82715 43.494806 162.29596 43.963624 162.55937 44.599565 162.55937 45.262575 162.55937 45.92558 162.29596 46.561525 161.82715 47.03034 161.35832 47.499158 160.72238 47.762575 160.05937 47.762575 159.39636 47.762575 158.76042 47.499158 158.29161 47.03034 157.82279 46.561525 157.55937 45.92558 157.55937 45.262575 157.55937 44.599565 157.82279 43.963624 158.29161 43.494806 158.76042 43.02599 159.39636 42.762575 160.05937 42.762575Z" fill="#ff0000"/>
<path transform="matrix(1,0,0,-1,0,325.1835)" stroke-width="1" stroke-linecap="butt" stroke-linejoin="round" fill="none" stroke="#ff0000" d="M160.05937 42.762575C160.72238 42.762575 161.35832 43.02599 161.82715 43.494806 162.29596 43.963624 162.55937 44.599565 162.55937 45.262575 162.55937 45.92558 162.29596 46.561525 161.82715 47.03034 161.35832 47.499158 160.72238 47.762575 160.05937 47.762575 159.39636 47.762575 158.76042 47.499158 158.29161 47.03034 157.82279 46.561525 157.55937 45.92558 157.55937 45.262575 157.55937 44.599565 157.82279 43.963624 158.29161 43.494806 158.76042 43.02599 159.39636 42.762575 160.05937 42.762575Z"/>
</g>
<g clip-path="url(#clip_28)">
<path transform="matrix(1,0,0,-1,0,325.1835)" d="M160.05937 101.367229C160.72238 101.367229 161.35832 101.63064 161.82715 102.09946 162.29596 102.568279 162.55937 103.204219 162.55937 103.867229 162.55937 104.530239 162.29596 105.166179 161.82715 105.634998 161.35832 106.103809 160.72238 106.367229 160.05937 106.367229 159.39636 106.367229 158.76042 106.103809 158.29161 105.634998 157.82279 105.166179 157.55937 104.530239 157.55937 103.867229 157.55937 103.204219 157.82279 102.568279 158.29161 102.09946 158.76042 101.63064 159.39636 101.367229 160.05937 101.367229Z" fill="#ff0000"/>
<path transform="matrix(1,0,0,-1,0,325.1835)" stroke-width="1" stroke-linecap="butt" stroke-linejoin="round" fill="none" stroke="#ff0000" d="M160.05937 101.367229C160.72238 101.367229 161.35832 101.63064 161.82715 102.09946 162.29596 102.568279 162.55937 103.204219 162.55937 103.867229 162.55937 104.530239 162.29596 105.166179 161.82715 105.634998 161.35832 106.103809 160.72238 106.367229 160.05937 106.367229 159.39636 106.367229 158.76042 106.103809 158.29161 105.634998 157.82279 105.166179 157.55937 104.530239 157.55937 103.867229 157.55937 103.204219 157.82279 102.568279 158.29161 102.09946 158.76042 101.63064 159.39636 101.367229 160.05937 101.367229Z"/>
</g>
<g clip-path="url(#clip_29)">
<path transform="matrix(1,0,0,-1,0,325.1835)" d="M160.05937 159.97188C160.72238 159.97188 161.35832 160.23529 161.82715 160.7041 162.29596 161.17293 162.55937 161.80887 162.55937 162.47188 162.55937 163.13489 162.29596 163.77083 161.82715 164.23964 161.35832 164.70847 160.72238 164.97188 160.05937 164.97188 159.39636 164.97188 158.76042 164.70847 158.29161 164.23964 157.82279 163.77083 157.55937 163.13489 157.55937 162.47188 157.55937 161.80887 157.82279 161.17293 158.29161 160.7041 158.76042 160.23529 159.39636 159.97188 160.05937 159.97188Z" fill="#ff0000"/>
<path transform="matrix(1,0,0,-1,0,325.1835)" stroke-width="1" stroke-linecap="butt" stroke-linejoin="round" fill="none" stroke="#ff0000" d="M160.05937 159.97188C160.72238 159.97188 161.35832 160.23529 161.82715 160.7041 162.29596 161.17293 162.55937 161.80887 162.55937 162.47188 162.55937 163.13489 162.29596 163.77083 161.82715 164.23964 161.35832 164.70847 160.72238 164.97188 160.05937 164.97188 159.39636 164.97188 158.76042 164.70847 158.29161 164.23964 157.82279 163.77083 157.55937 163.13489 157.55937 162.47188 157.55937 161.80887 157.82279 161.17293 158.29161 160.7041 158.76042 160.23529 159.39636 159.97188 160.05937 159.97188Z"/>
</g>
<g clip-path="url(#clip_30)">
<path transform="matrix(1,0,0,-1,0,325.1835)" d="M217.70401 42.762575C218.367 42.762575 219.00296 43.02599 219.47177 43.494806 219.94058 43.963624 220.20401 44.599565 220.20401 45.262575 220.20401 45.92558 219.94058 46.561525 219.47177 47.03034 219.00296 47.499158 218.367 47.762575 217.70401 47.762575 217.041 47.762575 216.40506 47.499158 215.93624 47.03034 215.46743 46.561525 215.20401 45.92558 215.20401 45.262575 215.20401 44.599565 215.46743 43.963624 215.93624 43.494806 216.40506 43.02599 217.041 42.762575 217.70401 42.762575Z" fill="#ff0000"/>
<path transform="matrix(1,0,0,-1,0,325.1835)" stroke-width="1" stroke-linecap="butt" stroke-linejoin="round" fill="none" stroke="#ff0000" d="M217.70401 42.762575C218.367 42.762575 219.00296 43.02599 219.47177 43.494806 219.94058 43.963624 220.20401 44.599565 220.20401 45.262575 220.20401 45.92558 219.94058 46.561525 219.47177 47.03034 219.00296 47.499158 218.367 47.762575 217.70401 47.762575 217.041 47.762575 216.40506 47.499158 215.93624 47.03034 215.46743 46.561525 215.20401 45.92558 215.20401 45.262575 215.20401 44.599565 215.46743 43.963624 215.93624 43.494806 216.40506 43.02599 217.041 42.762575 217.70401 42.762575Z"/>
</g>
<g clip-path="url(#clip_31)">
<path transform="matrix(1,0,0,-1,0,325.1835)" d="M217.70401 101.367229C218.367 101.367229 219.00296 101.63064 219.47177 102.09946 219.94058 102.568279 220.20401 103.204219 220.20401 103.867229 220.20401 104.530239 219.94058 105.166179 219.47177 105.634998 219.00296 106.103809 218.367 106.367229 217.70401 106.367229 217.041 106.367229 216.40506 106.103809 215.93624 105.634998 215.46743 105.166179 215.20401 104.530239 215.20401 103.867229 215.20401 103.204219 215.46743 102.568279 215.93624 102.09946 216.40506 101.63064 217.041 101.367229 217.70401 101.367229Z" fill="#ff0000"/>
<path transform="matrix(1,0,0,-1,0,325.1835)" stroke-width="1" stroke-linecap="butt" stroke-linejoin="round" fill="none" stroke="#ff0000" d="M217.70401 101.367229C218.367 101.367229 219.00296 101.63064 219.47177 102.09946 219.94058 102.568279 220.20401 103.204219 220.20401 103.867229 220.20401 104.530239 219.94058 105.166179 219.47177 105.634998 219.00296 106.103809 218.367 106.367229 217.70401 106.367229 217.041 106.367229 216.40506 106.103809 215.93624 105.634998 215.46743 105.166179 215.20401 104.530239 215.20401 103.867229 215.20401 103.204219 215.46743 102.568279 215.93624 102.09946 216.40506 101.63064 217.041 101.367229 217.70401 101.367229Z"/>
</g>
<g clip-path="url(#clip_32)">
<path transform="matrix(1,0,0,-1,0,325.1835)" d="M275.34864 42.762575C276.01164 42.762575 276.64759 43.02599 277.1164 43.494806 277.5852 43.963624 277.84864 44.599565 277.84864 45.262575 277.84864 45.92558 277.5852 46.561525 277.1164 47.03034 276.64759 47.499158 276.01164 47.762575 275.34864 47.762575 274.6856 47.762575 274.04969 47.499158 273.58088 47.03034 273.11207 46.561525 272.84864 45.92558 272.84864 45.262575 272.84864 44.599565 273.11207 43.963624 273.58088 43.494806 274.04969 43.02599 274.6856 42.762575 275.34864 42.762575Z" fill="#ff0000"/>
<path transform="matrix(1,0,0,-1,0,325.1835)" stroke-width="1" stroke-linecap="butt" stroke-linejoin="round" fill="none" stroke="#ff0000" d="M275.34864 42.762575C276.01164 42.762575 276.64759 43.02599 277.1164 43.494806 277.5852 43.963624 277.84864 44.599565 277.84864 45.262575 277.84864 45.92558 277.5852 46.561525 277.1164 47.03034 276.64759 47.499158 276.01164 47.762575 275.34864 47.762575 274.6856 47.762575 274.04969 47.499158 273.58088 47.03034 273.11207 46.561525 272.84864 45.92558 272.84864 45.262575 272.84864 44.599565 273.11207 43.963624 273.58088 43.494806 274.04969 43.02599 274.6856 42.762575 275.34864 42.762575Z"/>
</g>
<path transform="matrix(1,0,0,-1,0,325.1835)" stroke-width=".8" stroke-linecap="square" stroke-miterlimit="10" stroke-linejoin="miter" fill="none" stroke="#000000" d="M20.559376 23.871876V301.07188"/>
<path transform="matrix(1,0,0,-1,0,325.1835)" stroke-width=".8" stroke-linecap="square" stroke-miterlimit="10" stroke-linejoin="miter" fill="none" stroke="#000000" d="M299.5594 23.871876V301.07188"/>
<path transform="matrix(1,0,0,-1,0,325.1835)" stroke-width=".8" stroke-linecap="square" stroke-miterlimit="10" stroke-linejoin="miter" fill="none" stroke="#000000" d="M20.559376 23.871876H299.5594"/>
<path transform="matrix(1,0,0,-1,0,325.1835)" stroke-width=".8" stroke-linecap="square" stroke-miterlimit="10" stroke-linejoin="miter" fill="none" stroke="#000000" d="M20.559376 301.07188H299.5594"/>
<text xml:space="preserve" transform="matrix(1 0 -0 1 21.712267 16.200013)" font-size="12" font-family="Cmr10"><tspan y="-.171875" x="0">5</tspan></text>
<text xml:space="preserve" transform="matrix(1 0 -0 1 21.712267 16.200013)" font-size="12" font-family="DejaVuSerif"><tspan y="-.171875" x="6 9.814453 17.496094 24.720704 28.558594 36.28711 41.109376"> points</tspan></text>
<text xml:space="preserve" transform="matrix(1 0 -0 1 79.356899 74.80466)" font-size="12" font-family="Cmr10"><tspan y="-.171875" x="0">4</tspan></text>
<text xml:space="preserve" transform="matrix(1 0 -0 1 79.356899 74.80466)" font-size="12" font-family="DejaVuSerif"><tspan y="-.171875" x="6 9.814453 17.496094 24.720704 28.558594 36.28711 41.109376"> points</tspan></text>
<text xml:space="preserve" transform="matrix(1 0 -0 1 137.00153 133.4093)" font-size="12" font-family="Cmr10"><tspan y="-.171875" x="0">3</tspan></text>
<text xml:space="preserve" transform="matrix(1 0 -0 1 137.00153 133.4093)" font-size="12" font-family="DejaVuSerif"><tspan y="-.171875" x="6 9.814453 17.496094 24.720704 28.558594 36.28711 41.109376"> points</tspan></text>
<text xml:space="preserve" transform="matrix(1 0 -0 1 194.64615 192.01395)" font-size="12" font-family="Cmr10"><tspan y="-.171875" x="0">2</tspan></text>
<text xml:space="preserve" transform="matrix(1 0 -0 1 194.64615 192.01395)" font-size="12" font-family="DejaVuSerif"><tspan y="-.171875" x="6 9.814453 17.496094 24.720704 28.558594 36.28711 41.109376"> points</tspan></text>
<text xml:space="preserve" transform="matrix(1 0 -0 1 252.29077 250.6186)" font-size="12" font-family="Cmr10"><tspan y="-.171875" x="0">1</tspan></text>
<text xml:space="preserve" transform="matrix(1 0 -0 1 252.29077 250.6186)" font-size="12" font-family="DejaVuSerif"><tspan y="-.171875" x="6 9.814453 17.496094 24.720704 28.558594 36.28711 41.109376"> points</tspan></text>
<g>
<path transform="matrix(1,0,0,-1,0,325.1835)" d="M221.55937 277.47813H292.5594C293.8927 277.47813 294.5594 278.1448 294.5594 279.47813V294.07188C294.5594 295.4052 293.8927 296.07188 292.5594 296.07188H221.55937C220.22605 296.07188 219.55937 295.4052 219.55937 294.07188V279.47813C219.55937 278.1448 220.22605 277.47813 221.55937 277.47813Z" fill="#ffffff" fill-opacity=".8"/>
<path transform="matrix(1,0,0,-1,0,325.1835)" stroke-width="1" stroke-linecap="butt" stroke-miterlimit="10" stroke-linejoin="miter" fill="none" stroke="#cccccc" stroke-opacity=".8" d="M221.55937 277.47813H292.5594C293.8927 277.47813 294.5594 278.1448 294.5594 279.47813V294.07188C294.5594 295.4052 293.8927 296.07188 292.5594 296.07188H221.55937C220.22605 296.07188 219.55937 295.4052 219.55937 294.07188V279.47813C219.55937 278.1448 220.22605 277.47813 221.55937 277.47813Z"/>
</g>
<path transform="matrix(1,0,0,-1,0,325.1835)" stroke-width="1.5" stroke-linecap="square" stroke-linejoin="round" fill="none" stroke="#0000ff" d="M223.55937 287.97813H233.55937 243.55937"/>
<text xml:space="preserve" transform="matrix(1 0 -0 1 251.55937 40.705385)" font-size="10" font-family="Cmmi10"><tspan y="-.34375" x="0">y</tspan></text>
<text xml:space="preserve" transform="matrix(1 0 -0 1 251.55937 40.705385)" font-size="10" font-family="Cmr10"><tspan y="-.34375" x="6.658203 16.182618">=4</tspan></text>
<text xml:space="preserve" transform="matrix(1 0 -0 1 251.55937 40.705385)" font-size="10" font-family="Cmsy10"><tspan y="-.34375" x="22.938477">&#x2212;</tspan></text>
<text xml:space="preserve" transform="matrix(1 0 -0 1 251.55937 40.705385)" font-size="10" font-family="Cmmi10"><tspan y="-.34375" x="32.46289">x</tspan></text>
</svg>
